<mxfile host="65bd71144e" pages="8">
    <diagram id="VqBuKh5A-THluChDFXoK" name="variations">
        <mxGraphModel dx="1177" dy="780" grid="1" gridSize="10" guides="1" tooltips="1" connect="1" arrows="1" fold="1" page="1" pageScale="1" pageWidth="827" pageHeight="1169" math="1" shadow="0">
            <root>
                <mxCell id="0"/>
                <mxCell id="1" parent="0"/>
                <mxCell id="oEYoNpcb3EF5R4xYaGX7-232" value="" style="shape=parallelogram;perimeter=parallelogramPerimeter;whiteSpace=wrap;html=1;fixedSize=1;size=80;fillColor=#d5e8d4;strokeColor=#82b366;" parent="1" vertex="1">
                    <mxGeometry x="70" y="210" width="160" height="80" as="geometry"/>
                </mxCell>
                <mxCell id="oEYoNpcb3EF5R4xYaGX7-233" value="" style="shape=parallelogram;perimeter=parallelogramPerimeter;whiteSpace=wrap;html=1;fixedSize=1;size=80;fillColor=#d5e8d4;strokeColor=#82b366;" parent="1" vertex="1">
                    <mxGeometry x="150" y="210" width="160" height="80" as="geometry"/>
                </mxCell>
                <mxCell id="oEYoNpcb3EF5R4xYaGX7-231" value="" style="shape=parallelogram;perimeter=parallelogramPerimeter;whiteSpace=wrap;html=1;fixedSize=1;size=80;fillColor=#d5e8d4;strokeColor=#82b366;" parent="1" vertex="1">
                    <mxGeometry x="150" y="130" width="160" height="80" as="geometry"/>
                </mxCell>
                <mxCell id="oEYoNpcb3EF5R4xYaGX7-230" value="" style="shape=parallelogram;perimeter=parallelogramPerimeter;whiteSpace=wrap;html=1;fixedSize=1;size=80;fillColor=#d5e8d4;strokeColor=#82b366;" parent="1" vertex="1">
                    <mxGeometry x="230" y="130" width="160" height="80" as="geometry"/>
                </mxCell>
                <mxCell id="229" value="" style="shape=parallelogram;perimeter=parallelogramPerimeter;whiteSpace=wrap;html=1;fixedSize=1;size=80;fillColor=#dae8fc;strokeColor=#6c8ebf;" parent="1" vertex="1">
                    <mxGeometry x="550" y="610" width="160" height="80" as="geometry"/>
                </mxCell>
                <mxCell id="228" value="" style="shape=parallelogram;perimeter=parallelogramPerimeter;whiteSpace=wrap;html=1;fixedSize=1;size=80;fillColor=#dae8fc;strokeColor=#6c8ebf;" parent="1" vertex="1">
                    <mxGeometry x="550" y="530" width="160" height="80" as="geometry"/>
                </mxCell>
                <mxCell id="227" value="" style="shape=parallelogram;perimeter=parallelogramPerimeter;whiteSpace=wrap;html=1;fixedSize=1;size=80;fillColor=#d5e8d4;strokeColor=#82b366;" parent="1" vertex="1">
                    <mxGeometry x="150" y="610" width="160" height="80" as="geometry"/>
                </mxCell>
                <mxCell id="125" value="" style="shape=parallelogram;perimeter=parallelogramPerimeter;whiteSpace=wrap;html=1;fixedSize=1;size=160;fillColor=#ffe6cc;strokeColor=#d79b00;" parent="1" vertex="1">
                    <mxGeometry x="460" y="130" width="340" height="160" as="geometry"/>
                </mxCell>
                <mxCell id="124" value="" style="shape=parallelogram;perimeter=parallelogramPerimeter;whiteSpace=wrap;html=1;fixedSize=1;size=80;fillColor=#d5e8d4;strokeColor=#82b366;" parent="1" vertex="1">
                    <mxGeometry x="470" y="210" width="160" height="80" as="geometry"/>
                </mxCell>
                <mxCell id="114" value="" style="shape=parallelogram;perimeter=parallelogramPerimeter;whiteSpace=wrap;html=1;fixedSize=1;size=80;fillColor=#dae8fc;strokeColor=#6c8ebf;" parent="1" vertex="1">
                    <mxGeometry x="630" y="130" width="160" height="80" as="geometry"/>
                </mxCell>
                <mxCell id="10" value="" style="endArrow=none;html=1;" parent="1" edge="1">
                    <mxGeometry width="50" height="50" relative="1" as="geometry">
                        <mxPoint x="160" y="120" as="sourcePoint"/>
                        <mxPoint x="360" y="120" as="targetPoint"/>
                    </mxGeometry>
                </mxCell>
                <mxCell id="11" value="" style="endArrow=none;html=1;" parent="1" edge="1">
                    <mxGeometry width="50" height="50" relative="1" as="geometry">
                        <mxPoint x="160" y="100" as="sourcePoint"/>
                        <mxPoint x="180" y="80" as="targetPoint"/>
                    </mxGeometry>
                </mxCell>
                <mxCell id="12" value="" style="endArrow=none;html=1;" parent="1" edge="1">
                    <mxGeometry width="50" height="50" relative="1" as="geometry">
                        <mxPoint x="160" y="80" as="sourcePoint"/>
                        <mxPoint x="180" y="100" as="targetPoint"/>
                    </mxGeometry>
                </mxCell>
                <mxCell id="13" value="" style="ellipse;whiteSpace=wrap;html=1;aspect=fixed;" parent="1" vertex="1">
                    <mxGeometry x="220" y="140" width="20" height="20" as="geometry"/>
                </mxCell>
                <mxCell id="14" value="" style="ellipse;whiteSpace=wrap;html=1;aspect=fixed;" parent="1" vertex="1">
                    <mxGeometry x="260" y="140" width="20" height="20" as="geometry"/>
                </mxCell>
                <mxCell id="15" value="" style="ellipse;whiteSpace=wrap;html=1;aspect=fixed;" parent="1" vertex="1">
                    <mxGeometry x="300" y="140" width="20" height="20" as="geometry"/>
                </mxCell>
                <mxCell id="16" value="" style="ellipse;whiteSpace=wrap;html=1;aspect=fixed;" parent="1" vertex="1">
                    <mxGeometry x="340" y="140" width="20" height="20" as="geometry"/>
                </mxCell>
                <mxCell id="17" value="" style="ellipse;whiteSpace=wrap;html=1;aspect=fixed;" parent="1" vertex="1">
                    <mxGeometry x="180" y="180" width="20" height="20" as="geometry"/>
                </mxCell>
                <mxCell id="18" value="" style="ellipse;whiteSpace=wrap;html=1;aspect=fixed;" parent="1" vertex="1">
                    <mxGeometry x="220" y="180" width="20" height="20" as="geometry"/>
                </mxCell>
                <mxCell id="19" value="" style="ellipse;whiteSpace=wrap;html=1;aspect=fixed;" parent="1" vertex="1">
                    <mxGeometry x="260" y="180" width="20" height="20" as="geometry"/>
                </mxCell>
                <mxCell id="20" value="" style="ellipse;whiteSpace=wrap;html=1;aspect=fixed;" parent="1" vertex="1">
                    <mxGeometry x="300" y="180" width="20" height="20" as="geometry"/>
                </mxCell>
                <mxCell id="21" value="" style="ellipse;whiteSpace=wrap;html=1;aspect=fixed;" parent="1" vertex="1">
                    <mxGeometry x="140" y="220" width="20" height="20" as="geometry"/>
                </mxCell>
                <mxCell id="22" value="" style="ellipse;whiteSpace=wrap;html=1;aspect=fixed;" parent="1" vertex="1">
                    <mxGeometry x="180" y="220" width="20" height="20" as="geometry"/>
                </mxCell>
                <mxCell id="23" value="" style="ellipse;whiteSpace=wrap;html=1;aspect=fixed;" parent="1" vertex="1">
                    <mxGeometry x="220" y="220" width="20" height="20" as="geometry"/>
                </mxCell>
                <mxCell id="24" value="" style="ellipse;whiteSpace=wrap;html=1;aspect=fixed;" parent="1" vertex="1">
                    <mxGeometry x="260" y="220" width="20" height="20" as="geometry"/>
                </mxCell>
                <mxCell id="25" value="" style="ellipse;whiteSpace=wrap;html=1;aspect=fixed;" parent="1" vertex="1">
                    <mxGeometry x="100" y="260" width="20" height="20" as="geometry"/>
                </mxCell>
                <mxCell id="26" value="" style="ellipse;whiteSpace=wrap;html=1;aspect=fixed;" parent="1" vertex="1">
                    <mxGeometry x="140" y="260" width="20" height="20" as="geometry"/>
                </mxCell>
                <mxCell id="27" value="" style="ellipse;whiteSpace=wrap;html=1;aspect=fixed;" parent="1" vertex="1">
                    <mxGeometry x="180" y="260" width="20" height="20" as="geometry"/>
                </mxCell>
                <mxCell id="28" value="" style="ellipse;whiteSpace=wrap;html=1;aspect=fixed;" parent="1" vertex="1">
                    <mxGeometry x="220" y="260" width="20" height="20" as="geometry"/>
                </mxCell>
                <mxCell id="29" value="" style="endArrow=none;html=1;" parent="1" edge="1">
                    <mxGeometry width="50" height="50" relative="1" as="geometry">
                        <mxPoint x="40" y="300" as="sourcePoint"/>
                        <mxPoint x="360" y="300" as="targetPoint"/>
                    </mxGeometry>
                </mxCell>
                <mxCell id="30" value="" style="ellipse;whiteSpace=wrap;html=1;aspect=fixed;" parent="1" vertex="1">
                    <mxGeometry x="220" y="320" width="20" height="20" as="geometry"/>
                </mxCell>
                <mxCell id="31" value="" style="ellipse;whiteSpace=wrap;html=1;aspect=fixed;" parent="1" vertex="1">
                    <mxGeometry x="260" y="320" width="20" height="20" as="geometry"/>
                </mxCell>
                <mxCell id="32" value="" style="ellipse;whiteSpace=wrap;html=1;aspect=fixed;" parent="1" vertex="1">
                    <mxGeometry x="300" y="320" width="20" height="20" as="geometry"/>
                </mxCell>
                <mxCell id="33" value="" style="ellipse;whiteSpace=wrap;html=1;aspect=fixed;" parent="1" vertex="1">
                    <mxGeometry x="340" y="320" width="20" height="20" as="geometry"/>
                </mxCell>
                <mxCell id="34" value="" style="ellipse;whiteSpace=wrap;html=1;aspect=fixed;" parent="1" vertex="1">
                    <mxGeometry x="60" y="320" width="20" height="20" as="geometry"/>
                </mxCell>
                <mxCell id="35" value="" style="ellipse;whiteSpace=wrap;html=1;aspect=fixed;" parent="1" vertex="1">
                    <mxGeometry x="100" y="320" width="20" height="20" as="geometry"/>
                </mxCell>
                <mxCell id="36" value="" style="ellipse;whiteSpace=wrap;html=1;aspect=fixed;" parent="1" vertex="1">
                    <mxGeometry x="140" y="320" width="20" height="20" as="geometry"/>
                </mxCell>
                <mxCell id="37" value="" style="ellipse;whiteSpace=wrap;html=1;aspect=fixed;" parent="1" vertex="1">
                    <mxGeometry x="180" y="320" width="20" height="20" as="geometry"/>
                </mxCell>
                <mxCell id="38" value="carry" style="text;html=1;align=center;verticalAlign=middle;resizable=0;points=[];autosize=1;strokeColor=none;fillColor=none;" parent="1" vertex="1">
                    <mxGeometry x="50" y="340" width="40" height="20" as="geometry"/>
                </mxCell>
                <mxCell id="76" value="multiplication" style="text;html=1;align=center;verticalAlign=middle;resizable=0;points=[];autosize=1;strokeColor=none;fillColor=none;" parent="1" vertex="1">
                    <mxGeometry x="160" y="370" width="80" height="20" as="geometry"/>
                </mxCell>
                <mxCell id="77" value="" style="ellipse;whiteSpace=wrap;html=1;aspect=fixed;" parent="1" vertex="1">
                    <mxGeometry x="620" y="40" width="20" height="20" as="geometry"/>
                </mxCell>
                <mxCell id="78" value="" style="ellipse;whiteSpace=wrap;html=1;aspect=fixed;" parent="1" vertex="1">
                    <mxGeometry x="660" y="40" width="20" height="20" as="geometry"/>
                </mxCell>
                <mxCell id="79" value="" style="ellipse;whiteSpace=wrap;html=1;aspect=fixed;" parent="1" vertex="1">
                    <mxGeometry x="700" y="40" width="20" height="20" as="geometry"/>
                </mxCell>
                <mxCell id="80" value="" style="ellipse;whiteSpace=wrap;html=1;aspect=fixed;" parent="1" vertex="1">
                    <mxGeometry x="740" y="40" width="20" height="20" as="geometry"/>
                </mxCell>
                <mxCell id="81" value="" style="ellipse;whiteSpace=wrap;html=1;aspect=fixed;" parent="1" vertex="1">
                    <mxGeometry x="620" y="80" width="20" height="20" as="geometry"/>
                </mxCell>
                <mxCell id="82" value="" style="ellipse;whiteSpace=wrap;html=1;aspect=fixed;" parent="1" vertex="1">
                    <mxGeometry x="660" y="80" width="20" height="20" as="geometry"/>
                </mxCell>
                <mxCell id="83" value="" style="ellipse;whiteSpace=wrap;html=1;aspect=fixed;" parent="1" vertex="1">
                    <mxGeometry x="700" y="80" width="20" height="20" as="geometry"/>
                </mxCell>
                <mxCell id="84" value="" style="ellipse;whiteSpace=wrap;html=1;aspect=fixed;" parent="1" vertex="1">
                    <mxGeometry x="740" y="80" width="20" height="20" as="geometry"/>
                </mxCell>
                <mxCell id="85" value="" style="endArrow=none;html=1;" parent="1" edge="1">
                    <mxGeometry width="50" height="50" relative="1" as="geometry">
                        <mxPoint x="560.0000000000001" y="120" as="sourcePoint"/>
                        <mxPoint x="760" y="120" as="targetPoint"/>
                    </mxGeometry>
                </mxCell>
                <mxCell id="86" value="" style="endArrow=none;html=1;" parent="1" edge="1">
                    <mxGeometry width="50" height="50" relative="1" as="geometry">
                        <mxPoint x="560.0000000000001" y="100" as="sourcePoint"/>
                        <mxPoint x="580.0000000000001" y="80" as="targetPoint"/>
                    </mxGeometry>
                </mxCell>
                <mxCell id="87" value="" style="endArrow=none;html=1;" parent="1" edge="1">
                    <mxGeometry width="50" height="50" relative="1" as="geometry">
                        <mxPoint x="560.0000000000001" y="80" as="sourcePoint"/>
                        <mxPoint x="580.0000000000001" y="100" as="targetPoint"/>
                    </mxGeometry>
                </mxCell>
                <mxCell id="88" value="" style="ellipse;whiteSpace=wrap;html=1;aspect=fixed;" parent="1" vertex="1">
                    <mxGeometry x="620" y="140" width="20" height="20" as="geometry"/>
                </mxCell>
                <mxCell id="89" value="" style="ellipse;whiteSpace=wrap;html=1;aspect=fixed;" parent="1" vertex="1">
                    <mxGeometry x="660" y="140" width="20" height="20" as="geometry"/>
                </mxCell>
                <mxCell id="90" value="" style="ellipse;whiteSpace=wrap;html=1;aspect=fixed;" parent="1" vertex="1">
                    <mxGeometry x="700" y="140" width="20" height="20" as="geometry"/>
                </mxCell>
                <mxCell id="91" value="" style="ellipse;whiteSpace=wrap;html=1;aspect=fixed;" parent="1" vertex="1">
                    <mxGeometry x="740" y="140" width="20" height="20" as="geometry"/>
                </mxCell>
                <mxCell id="92" value="" style="ellipse;whiteSpace=wrap;html=1;aspect=fixed;" parent="1" vertex="1">
                    <mxGeometry x="580" y="180" width="20" height="20" as="geometry"/>
                </mxCell>
                <mxCell id="93" value="" style="ellipse;whiteSpace=wrap;html=1;aspect=fixed;" parent="1" vertex="1">
                    <mxGeometry x="620" y="180" width="20" height="20" as="geometry"/>
                </mxCell>
                <mxCell id="94" value="" style="ellipse;whiteSpace=wrap;html=1;aspect=fixed;" parent="1" vertex="1">
                    <mxGeometry x="660" y="180" width="20" height="20" as="geometry"/>
                </mxCell>
                <mxCell id="95" value="" style="ellipse;whiteSpace=wrap;html=1;aspect=fixed;" parent="1" vertex="1">
                    <mxGeometry x="700" y="180" width="20" height="20" as="geometry"/>
                </mxCell>
                <mxCell id="96" value="" style="ellipse;whiteSpace=wrap;html=1;aspect=fixed;" parent="1" vertex="1">
                    <mxGeometry x="540" y="220" width="20" height="20" as="geometry"/>
                </mxCell>
                <mxCell id="97" value="" style="ellipse;whiteSpace=wrap;html=1;aspect=fixed;" parent="1" vertex="1">
                    <mxGeometry x="580" y="220" width="20" height="20" as="geometry"/>
                </mxCell>
                <mxCell id="98" value="" style="ellipse;whiteSpace=wrap;html=1;aspect=fixed;" parent="1" vertex="1">
                    <mxGeometry x="620" y="220" width="20" height="20" as="geometry"/>
                </mxCell>
                <mxCell id="99" value="" style="ellipse;whiteSpace=wrap;html=1;aspect=fixed;" parent="1" vertex="1">
                    <mxGeometry x="660" y="220" width="20" height="20" as="geometry"/>
                </mxCell>
                <mxCell id="100" value="" style="ellipse;whiteSpace=wrap;html=1;aspect=fixed;" parent="1" vertex="1">
                    <mxGeometry x="500" y="260" width="20" height="20" as="geometry"/>
                </mxCell>
                <mxCell id="101" value="" style="ellipse;whiteSpace=wrap;html=1;aspect=fixed;" parent="1" vertex="1">
                    <mxGeometry x="540" y="260" width="20" height="20" as="geometry"/>
                </mxCell>
                <mxCell id="102" value="" style="ellipse;whiteSpace=wrap;html=1;aspect=fixed;" parent="1" vertex="1">
                    <mxGeometry x="580" y="260" width="20" height="20" as="geometry"/>
                </mxCell>
                <mxCell id="103" value="" style="ellipse;whiteSpace=wrap;html=1;aspect=fixed;" parent="1" vertex="1">
                    <mxGeometry x="620" y="260" width="20" height="20" as="geometry"/>
                </mxCell>
                <mxCell id="104" value="" style="endArrow=none;html=1;" parent="1" edge="1">
                    <mxGeometry width="50" height="50" relative="1" as="geometry">
                        <mxPoint x="440" y="300" as="sourcePoint"/>
                        <mxPoint x="760" y="300" as="targetPoint"/>
                    </mxGeometry>
                </mxCell>
                <mxCell id="105" value="" style="ellipse;whiteSpace=wrap;html=1;aspect=fixed;" parent="1" vertex="1">
                    <mxGeometry x="620" y="320" width="20" height="20" as="geometry"/>
                </mxCell>
                <mxCell id="106" value="" style="ellipse;whiteSpace=wrap;html=1;aspect=fixed;" parent="1" vertex="1">
                    <mxGeometry x="660" y="320" width="20" height="20" as="geometry"/>
                </mxCell>
                <mxCell id="107" value="" style="ellipse;whiteSpace=wrap;html=1;aspect=fixed;" parent="1" vertex="1">
                    <mxGeometry x="700" y="320" width="20" height="20" as="geometry"/>
                </mxCell>
                <mxCell id="108" value="" style="ellipse;whiteSpace=wrap;html=1;aspect=fixed;" parent="1" vertex="1">
                    <mxGeometry x="740" y="320" width="20" height="20" as="geometry"/>
                </mxCell>
                <mxCell id="109" value="" style="ellipse;whiteSpace=wrap;html=1;aspect=fixed;" parent="1" vertex="1">
                    <mxGeometry x="460" y="320" width="20" height="20" as="geometry"/>
                </mxCell>
                <mxCell id="110" value="" style="ellipse;whiteSpace=wrap;html=1;aspect=fixed;" parent="1" vertex="1">
                    <mxGeometry x="500" y="320" width="20" height="20" as="geometry"/>
                </mxCell>
                <mxCell id="111" value="" style="ellipse;whiteSpace=wrap;html=1;aspect=fixed;" parent="1" vertex="1">
                    <mxGeometry x="540" y="320" width="20" height="20" as="geometry"/>
                </mxCell>
                <mxCell id="112" value="" style="ellipse;whiteSpace=wrap;html=1;aspect=fixed;" parent="1" vertex="1">
                    <mxGeometry x="580" y="320" width="20" height="20" as="geometry"/>
                </mxCell>
                <mxCell id="113" value="carry" style="text;html=1;align=center;verticalAlign=middle;resizable=0;points=[];autosize=1;strokeColor=none;fillColor=none;" parent="1" vertex="1">
                    <mxGeometry x="450" y="340" width="40" height="20" as="geometry"/>
                </mxCell>
                <mxCell id="126" value="karatsuba:" style="text;html=1;align=center;verticalAlign=middle;resizable=0;points=[];autosize=1;strokeColor=none;fillColor=none;" parent="1" vertex="1">
                    <mxGeometry x="485" y="370" width="70" height="20" as="geometry"/>
                </mxCell>
                <mxCell id="127" value="" style="rounded=0;whiteSpace=wrap;html=1;fillColor=#ffe6cc;strokeColor=#d79b00;" parent="1" vertex="1">
                    <mxGeometry x="560" y="370" width="40" height="20" as="geometry"/>
                </mxCell>
                <mxCell id="130" value="-" style="text;html=1;align=center;verticalAlign=middle;resizable=0;points=[];autosize=1;strokeColor=none;fillColor=none;" parent="1" vertex="1">
                    <mxGeometry x="600" y="370" width="20" height="20" as="geometry"/>
                </mxCell>
                <mxCell id="131" value="" style="rounded=0;whiteSpace=wrap;html=1;fillColor=#dae8fc;strokeColor=#6c8ebf;" parent="1" vertex="1">
                    <mxGeometry x="620" y="370" width="40" height="20" as="geometry"/>
                </mxCell>
                <mxCell id="132" value="-" style="text;html=1;align=center;verticalAlign=middle;resizable=0;points=[];autosize=1;strokeColor=none;fillColor=none;" parent="1" vertex="1">
                    <mxGeometry x="660" y="370" width="20" height="20" as="geometry"/>
                </mxCell>
                <mxCell id="133" value="" style="rounded=0;whiteSpace=wrap;html=1;fillColor=#d5e8d4;strokeColor=#82b366;" parent="1" vertex="1">
                    <mxGeometry x="680" y="370" width="40" height="20" as="geometry"/>
                </mxCell>
                <mxCell id="135" value="" style="shape=parallelogram;perimeter=parallelogramPerimeter;whiteSpace=wrap;html=1;fixedSize=1;size=80;fillColor=#dae8fc;strokeColor=#6c8ebf;" parent="1" vertex="1">
                    <mxGeometry x="150" y="530" width="160" height="80" as="geometry"/>
                </mxCell>
                <mxCell id="136" value="" style="shape=parallelogram;perimeter=parallelogramPerimeter;whiteSpace=wrap;html=1;fixedSize=1;size=80;fillColor=#ffe6cc;strokeColor=#d79b00;" parent="1" vertex="1">
                    <mxGeometry x="230" y="530" width="160" height="80" as="geometry"/>
                </mxCell>
                <mxCell id="137" value="" style="ellipse;whiteSpace=wrap;html=1;aspect=fixed;" parent="1" vertex="1">
                    <mxGeometry x="220" y="440" width="20" height="20" as="geometry"/>
                </mxCell>
                <mxCell id="138" value="" style="ellipse;whiteSpace=wrap;html=1;aspect=fixed;" parent="1" vertex="1">
                    <mxGeometry x="260" y="440" width="20" height="20" as="geometry"/>
                </mxCell>
                <mxCell id="139" value="" style="ellipse;whiteSpace=wrap;html=1;aspect=fixed;" parent="1" vertex="1">
                    <mxGeometry x="300" y="440" width="20" height="20" as="geometry"/>
                </mxCell>
                <mxCell id="140" value="" style="ellipse;whiteSpace=wrap;html=1;aspect=fixed;" parent="1" vertex="1">
                    <mxGeometry x="340" y="440" width="20" height="20" as="geometry"/>
                </mxCell>
                <mxCell id="141" value="" style="ellipse;whiteSpace=wrap;html=1;aspect=fixed;" parent="1" vertex="1">
                    <mxGeometry x="220" y="480" width="20" height="20" as="geometry"/>
                </mxCell>
                <mxCell id="142" value="" style="ellipse;whiteSpace=wrap;html=1;aspect=fixed;" parent="1" vertex="1">
                    <mxGeometry x="260" y="480" width="20" height="20" as="geometry"/>
                </mxCell>
                <mxCell id="143" value="" style="ellipse;whiteSpace=wrap;html=1;aspect=fixed;" parent="1" vertex="1">
                    <mxGeometry x="300" y="480" width="20" height="20" as="geometry"/>
                </mxCell>
                <mxCell id="144" value="" style="ellipse;whiteSpace=wrap;html=1;aspect=fixed;" parent="1" vertex="1">
                    <mxGeometry x="340" y="480" width="20" height="20" as="geometry"/>
                </mxCell>
                <mxCell id="145" value="" style="endArrow=none;html=1;" parent="1" edge="1">
                    <mxGeometry width="50" height="50" relative="1" as="geometry">
                        <mxPoint x="160" y="520" as="sourcePoint"/>
                        <mxPoint x="360" y="520" as="targetPoint"/>
                    </mxGeometry>
                </mxCell>
                <mxCell id="146" value="" style="endArrow=none;html=1;" parent="1" edge="1">
                    <mxGeometry width="50" height="50" relative="1" as="geometry">
                        <mxPoint x="160" y="500" as="sourcePoint"/>
                        <mxPoint x="180" y="480" as="targetPoint"/>
                    </mxGeometry>
                </mxCell>
                <mxCell id="147" value="" style="endArrow=none;html=1;" parent="1" edge="1">
                    <mxGeometry width="50" height="50" relative="1" as="geometry">
                        <mxPoint x="160" y="480" as="sourcePoint"/>
                        <mxPoint x="180" y="500" as="targetPoint"/>
                    </mxGeometry>
                </mxCell>
                <mxCell id="148" value="" style="ellipse;whiteSpace=wrap;html=1;aspect=fixed;" parent="1" vertex="1">
                    <mxGeometry x="220" y="540" width="20" height="20" as="geometry"/>
                </mxCell>
                <mxCell id="149" value="" style="ellipse;whiteSpace=wrap;html=1;aspect=fixed;" parent="1" vertex="1">
                    <mxGeometry x="260" y="540" width="20" height="20" as="geometry"/>
                </mxCell>
                <mxCell id="150" value="" style="ellipse;whiteSpace=wrap;html=1;aspect=fixed;" parent="1" vertex="1">
                    <mxGeometry x="300" y="540" width="20" height="20" as="geometry"/>
                </mxCell>
                <mxCell id="151" value="" style="ellipse;whiteSpace=wrap;html=1;aspect=fixed;" parent="1" vertex="1">
                    <mxGeometry x="340" y="540" width="20" height="20" as="geometry"/>
                </mxCell>
                <mxCell id="152" value="" style="ellipse;whiteSpace=wrap;html=1;aspect=fixed;" parent="1" vertex="1">
                    <mxGeometry x="180" y="580" width="20" height="20" as="geometry"/>
                </mxCell>
                <mxCell id="153" value="" style="ellipse;whiteSpace=wrap;html=1;aspect=fixed;" parent="1" vertex="1">
                    <mxGeometry x="220" y="580" width="20" height="20" as="geometry"/>
                </mxCell>
                <mxCell id="154" value="" style="ellipse;whiteSpace=wrap;html=1;aspect=fixed;" parent="1" vertex="1">
                    <mxGeometry x="260" y="580" width="20" height="20" as="geometry"/>
                </mxCell>
                <mxCell id="155" value="" style="ellipse;whiteSpace=wrap;html=1;aspect=fixed;" parent="1" vertex="1">
                    <mxGeometry x="300" y="580" width="20" height="20" as="geometry"/>
                </mxCell>
                <mxCell id="156" value="" style="ellipse;whiteSpace=wrap;html=1;aspect=fixed;" parent="1" vertex="1">
                    <mxGeometry x="140" y="620" width="20" height="20" as="geometry"/>
                </mxCell>
                <mxCell id="157" value="" style="ellipse;whiteSpace=wrap;html=1;aspect=fixed;" parent="1" vertex="1">
                    <mxGeometry x="180" y="620" width="20" height="20" as="geometry"/>
                </mxCell>
                <mxCell id="158" value="" style="ellipse;whiteSpace=wrap;html=1;aspect=fixed;" parent="1" vertex="1">
                    <mxGeometry x="220" y="620" width="20" height="20" as="geometry"/>
                </mxCell>
                <mxCell id="159" value="" style="ellipse;whiteSpace=wrap;html=1;aspect=fixed;" parent="1" vertex="1">
                    <mxGeometry x="260" y="620" width="20" height="20" as="geometry"/>
                </mxCell>
                <mxCell id="160" value="" style="ellipse;whiteSpace=wrap;html=1;aspect=fixed;" parent="1" vertex="1">
                    <mxGeometry x="100" y="660" width="20" height="20" as="geometry"/>
                </mxCell>
                <mxCell id="161" value="" style="ellipse;whiteSpace=wrap;html=1;aspect=fixed;" parent="1" vertex="1">
                    <mxGeometry x="140" y="660" width="20" height="20" as="geometry"/>
                </mxCell>
                <mxCell id="162" value="" style="ellipse;whiteSpace=wrap;html=1;aspect=fixed;" parent="1" vertex="1">
                    <mxGeometry x="180" y="660" width="20" height="20" as="geometry"/>
                </mxCell>
                <mxCell id="163" value="" style="ellipse;whiteSpace=wrap;html=1;aspect=fixed;" parent="1" vertex="1">
                    <mxGeometry x="220" y="660" width="20" height="20" as="geometry"/>
                </mxCell>
                <mxCell id="164" value="" style="endArrow=none;html=1;" parent="1" edge="1">
                    <mxGeometry width="50" height="50" relative="1" as="geometry">
                        <mxPoint x="40" y="700" as="sourcePoint"/>
                        <mxPoint x="360" y="700" as="targetPoint"/>
                    </mxGeometry>
                </mxCell>
                <mxCell id="165" value="" style="ellipse;whiteSpace=wrap;html=1;aspect=fixed;" parent="1" vertex="1">
                    <mxGeometry x="220" y="720" width="20" height="20" as="geometry"/>
                </mxCell>
                <mxCell id="166" value="" style="ellipse;whiteSpace=wrap;html=1;aspect=fixed;" parent="1" vertex="1">
                    <mxGeometry x="260" y="720" width="20" height="20" as="geometry"/>
                </mxCell>
                <mxCell id="167" value="" style="ellipse;whiteSpace=wrap;html=1;aspect=fixed;" parent="1" vertex="1">
                    <mxGeometry x="300" y="720" width="20" height="20" as="geometry"/>
                </mxCell>
                <mxCell id="168" value="" style="ellipse;whiteSpace=wrap;html=1;aspect=fixed;" parent="1" vertex="1">
                    <mxGeometry x="340" y="720" width="20" height="20" as="geometry"/>
                </mxCell>
                <mxCell id="169" value="" style="ellipse;whiteSpace=wrap;html=1;aspect=fixed;" parent="1" vertex="1">
                    <mxGeometry x="60" y="720" width="20" height="20" as="geometry"/>
                </mxCell>
                <mxCell id="170" value="" style="ellipse;whiteSpace=wrap;html=1;aspect=fixed;" parent="1" vertex="1">
                    <mxGeometry x="100" y="720" width="20" height="20" as="geometry"/>
                </mxCell>
                <mxCell id="171" value="" style="ellipse;whiteSpace=wrap;html=1;aspect=fixed;" parent="1" vertex="1">
                    <mxGeometry x="140" y="720" width="20" height="20" as="geometry"/>
                </mxCell>
                <mxCell id="172" value="" style="ellipse;whiteSpace=wrap;html=1;aspect=fixed;" parent="1" vertex="1">
                    <mxGeometry x="180" y="720" width="20" height="20" as="geometry"/>
                </mxCell>
                <mxCell id="173" value="carry" style="text;html=1;align=center;verticalAlign=middle;resizable=0;points=[];autosize=1;strokeColor=none;fillColor=none;" parent="1" vertex="1">
                    <mxGeometry x="50" y="740" width="40" height="20" as="geometry"/>
                </mxCell>
                <mxCell id="174" value="low-bits" style="text;html=1;align=center;verticalAlign=middle;resizable=0;points=[];autosize=1;strokeColor=none;fillColor=none;" parent="1" vertex="1">
                    <mxGeometry x="90" y="770" width="60" height="20" as="geometry"/>
                </mxCell>
                <mxCell id="175" value="" style="rounded=0;whiteSpace=wrap;html=1;fillColor=#ffe6cc;strokeColor=#d79b00;" parent="1" vertex="1">
                    <mxGeometry x="160" y="770" width="40" height="20" as="geometry"/>
                </mxCell>
                <mxCell id="176" value="+" style="text;html=1;align=center;verticalAlign=middle;resizable=0;points=[];autosize=1;strokeColor=none;fillColor=none;" parent="1" vertex="1">
                    <mxGeometry x="200" y="770" width="20" height="20" as="geometry"/>
                </mxCell>
                <mxCell id="177" value="" style="rounded=0;whiteSpace=wrap;html=1;fillColor=#dae8fc;strokeColor=#6c8ebf;" parent="1" vertex="1">
                    <mxGeometry x="220" y="770" width="40" height="20" as="geometry"/>
                </mxCell>
                <mxCell id="178" value="+" style="text;html=1;align=center;verticalAlign=middle;resizable=0;points=[];autosize=1;strokeColor=none;fillColor=none;" parent="1" vertex="1">
                    <mxGeometry x="260" y="770" width="20" height="20" as="geometry"/>
                </mxCell>
                <mxCell id="179" value="" style="rounded=0;whiteSpace=wrap;html=1;fillColor=#d5e8d4;strokeColor=#82b366;" parent="1" vertex="1">
                    <mxGeometry x="280" y="770" width="40" height="20" as="geometry"/>
                </mxCell>
                <mxCell id="181" value="" style="shape=parallelogram;perimeter=parallelogramPerimeter;whiteSpace=wrap;html=1;fixedSize=1;size=80;fillColor=#d5e8d4;strokeColor=#82b366;" parent="1" vertex="1">
                    <mxGeometry x="470" y="610" width="160" height="80" as="geometry"/>
                </mxCell>
                <mxCell id="182" value="" style="shape=parallelogram;perimeter=parallelogramPerimeter;whiteSpace=wrap;html=1;fixedSize=1;size=80;fillColor=#ffe6cc;strokeColor=#d79b00;" parent="1" vertex="1">
                    <mxGeometry x="630" y="530" width="160" height="80" as="geometry"/>
                </mxCell>
                <mxCell id="183" value="" style="ellipse;whiteSpace=wrap;html=1;aspect=fixed;" parent="1" vertex="1">
                    <mxGeometry x="620" y="440" width="20" height="20" as="geometry"/>
                </mxCell>
                <mxCell id="184" value="" style="ellipse;whiteSpace=wrap;html=1;aspect=fixed;" parent="1" vertex="1">
                    <mxGeometry x="660" y="440" width="20" height="20" as="geometry"/>
                </mxCell>
                <mxCell id="185" value="" style="ellipse;whiteSpace=wrap;html=1;aspect=fixed;" parent="1" vertex="1">
                    <mxGeometry x="700" y="440" width="20" height="20" as="geometry"/>
                </mxCell>
                <mxCell id="186" value="" style="ellipse;whiteSpace=wrap;html=1;aspect=fixed;" parent="1" vertex="1">
                    <mxGeometry x="740" y="440" width="20" height="20" as="geometry"/>
                </mxCell>
                <mxCell id="187" value="" style="ellipse;whiteSpace=wrap;html=1;aspect=fixed;" parent="1" vertex="1">
                    <mxGeometry x="620" y="480" width="20" height="20" as="geometry"/>
                </mxCell>
                <mxCell id="188" value="" style="ellipse;whiteSpace=wrap;html=1;aspect=fixed;" parent="1" vertex="1">
                    <mxGeometry x="660" y="480" width="20" height="20" as="geometry"/>
                </mxCell>
                <mxCell id="189" value="" style="ellipse;whiteSpace=wrap;html=1;aspect=fixed;" parent="1" vertex="1">
                    <mxGeometry x="700" y="480" width="20" height="20" as="geometry"/>
                </mxCell>
                <mxCell id="190" value="" style="ellipse;whiteSpace=wrap;html=1;aspect=fixed;" parent="1" vertex="1">
                    <mxGeometry x="740" y="480" width="20" height="20" as="geometry"/>
                </mxCell>
                <mxCell id="191" value="" style="endArrow=none;html=1;" parent="1" edge="1">
                    <mxGeometry width="50" height="50" relative="1" as="geometry">
                        <mxPoint x="560" y="520" as="sourcePoint"/>
                        <mxPoint x="760" y="520" as="targetPoint"/>
                    </mxGeometry>
                </mxCell>
                <mxCell id="192" value="" style="endArrow=none;html=1;" parent="1" edge="1">
                    <mxGeometry width="50" height="50" relative="1" as="geometry">
                        <mxPoint x="560" y="500" as="sourcePoint"/>
                        <mxPoint x="580" y="480" as="targetPoint"/>
                    </mxGeometry>
                </mxCell>
                <mxCell id="193" value="" style="endArrow=none;html=1;" parent="1" edge="1">
                    <mxGeometry width="50" height="50" relative="1" as="geometry">
                        <mxPoint x="560" y="480" as="sourcePoint"/>
                        <mxPoint x="580" y="500" as="targetPoint"/>
                    </mxGeometry>
                </mxCell>
                <mxCell id="194" value="" style="ellipse;whiteSpace=wrap;html=1;aspect=fixed;" parent="1" vertex="1">
                    <mxGeometry x="620" y="540" width="20" height="20" as="geometry"/>
                </mxCell>
                <mxCell id="195" value="" style="ellipse;whiteSpace=wrap;html=1;aspect=fixed;" parent="1" vertex="1">
                    <mxGeometry x="660" y="540" width="20" height="20" as="geometry"/>
                </mxCell>
                <mxCell id="196" value="" style="ellipse;whiteSpace=wrap;html=1;aspect=fixed;" parent="1" vertex="1">
                    <mxGeometry x="700" y="540" width="20" height="20" as="geometry"/>
                </mxCell>
                <mxCell id="197" value="" style="ellipse;whiteSpace=wrap;html=1;aspect=fixed;" parent="1" vertex="1">
                    <mxGeometry x="740" y="540" width="20" height="20" as="geometry"/>
                </mxCell>
                <mxCell id="198" value="" style="ellipse;whiteSpace=wrap;html=1;aspect=fixed;" parent="1" vertex="1">
                    <mxGeometry x="580" y="580" width="20" height="20" as="geometry"/>
                </mxCell>
                <mxCell id="199" value="" style="ellipse;whiteSpace=wrap;html=1;aspect=fixed;" parent="1" vertex="1">
                    <mxGeometry x="620" y="580" width="20" height="20" as="geometry"/>
                </mxCell>
                <mxCell id="200" value="" style="ellipse;whiteSpace=wrap;html=1;aspect=fixed;" parent="1" vertex="1">
                    <mxGeometry x="660" y="580" width="20" height="20" as="geometry"/>
                </mxCell>
                <mxCell id="201" value="" style="ellipse;whiteSpace=wrap;html=1;aspect=fixed;" parent="1" vertex="1">
                    <mxGeometry x="700" y="580" width="20" height="20" as="geometry"/>
                </mxCell>
                <mxCell id="202" value="" style="ellipse;whiteSpace=wrap;html=1;aspect=fixed;" parent="1" vertex="1">
                    <mxGeometry x="540" y="620" width="20" height="20" as="geometry"/>
                </mxCell>
                <mxCell id="203" value="" style="ellipse;whiteSpace=wrap;html=1;aspect=fixed;" parent="1" vertex="1">
                    <mxGeometry x="580" y="620" width="20" height="20" as="geometry"/>
                </mxCell>
                <mxCell id="204" value="" style="ellipse;whiteSpace=wrap;html=1;aspect=fixed;" parent="1" vertex="1">
                    <mxGeometry x="620" y="620" width="20" height="20" as="geometry"/>
                </mxCell>
                <mxCell id="205" value="" style="ellipse;whiteSpace=wrap;html=1;aspect=fixed;" parent="1" vertex="1">
                    <mxGeometry x="660" y="620" width="20" height="20" as="geometry"/>
                </mxCell>
                <mxCell id="206" value="" style="ellipse;whiteSpace=wrap;html=1;aspect=fixed;" parent="1" vertex="1">
                    <mxGeometry x="500" y="660" width="20" height="20" as="geometry"/>
                </mxCell>
                <mxCell id="207" value="" style="ellipse;whiteSpace=wrap;html=1;aspect=fixed;" parent="1" vertex="1">
                    <mxGeometry x="540" y="660" width="20" height="20" as="geometry"/>
                </mxCell>
                <mxCell id="208" value="" style="ellipse;whiteSpace=wrap;html=1;aspect=fixed;" parent="1" vertex="1">
                    <mxGeometry x="580" y="660" width="20" height="20" as="geometry"/>
                </mxCell>
                <mxCell id="209" value="" style="ellipse;whiteSpace=wrap;html=1;aspect=fixed;" parent="1" vertex="1">
                    <mxGeometry x="620" y="660" width="20" height="20" as="geometry"/>
                </mxCell>
                <mxCell id="210" value="" style="endArrow=none;html=1;" parent="1" edge="1">
                    <mxGeometry width="50" height="50" relative="1" as="geometry">
                        <mxPoint x="440" y="700" as="sourcePoint"/>
                        <mxPoint x="760" y="700" as="targetPoint"/>
                    </mxGeometry>
                </mxCell>
                <mxCell id="211" value="" style="ellipse;whiteSpace=wrap;html=1;aspect=fixed;" parent="1" vertex="1">
                    <mxGeometry x="620" y="720" width="20" height="20" as="geometry"/>
                </mxCell>
                <mxCell id="212" value="" style="ellipse;whiteSpace=wrap;html=1;aspect=fixed;" parent="1" vertex="1">
                    <mxGeometry x="660" y="720" width="20" height="20" as="geometry"/>
                </mxCell>
                <mxCell id="213" value="" style="ellipse;whiteSpace=wrap;html=1;aspect=fixed;" parent="1" vertex="1">
                    <mxGeometry x="700" y="720" width="20" height="20" as="geometry"/>
                </mxCell>
                <mxCell id="214" value="" style="ellipse;whiteSpace=wrap;html=1;aspect=fixed;" parent="1" vertex="1">
                    <mxGeometry x="740" y="720" width="20" height="20" as="geometry"/>
                </mxCell>
                <mxCell id="215" value="" style="ellipse;whiteSpace=wrap;html=1;aspect=fixed;" parent="1" vertex="1">
                    <mxGeometry x="460" y="720" width="20" height="20" as="geometry"/>
                </mxCell>
                <mxCell id="216" value="" style="ellipse;whiteSpace=wrap;html=1;aspect=fixed;" parent="1" vertex="1">
                    <mxGeometry x="500" y="720" width="20" height="20" as="geometry"/>
                </mxCell>
                <mxCell id="217" value="" style="ellipse;whiteSpace=wrap;html=1;aspect=fixed;" parent="1" vertex="1">
                    <mxGeometry x="540" y="720" width="20" height="20" as="geometry"/>
                </mxCell>
                <mxCell id="218" value="" style="ellipse;whiteSpace=wrap;html=1;aspect=fixed;" parent="1" vertex="1">
                    <mxGeometry x="580" y="720" width="20" height="20" as="geometry"/>
                </mxCell>
                <mxCell id="219" value="carry" style="text;html=1;align=center;verticalAlign=middle;resizable=0;points=[];autosize=1;strokeColor=none;fillColor=none;" parent="1" vertex="1">
                    <mxGeometry x="450" y="740" width="40" height="20" as="geometry"/>
                </mxCell>
                <mxCell id="220" value="squaring" style="text;html=1;align=center;verticalAlign=middle;resizable=0;points=[];autosize=1;strokeColor=none;fillColor=none;" parent="1" vertex="1">
                    <mxGeometry x="490" y="770" width="60" height="20" as="geometry"/>
                </mxCell>
                <mxCell id="221" value="" style="rounded=0;whiteSpace=wrap;html=1;fillColor=#ffe6cc;strokeColor=#d79b00;" parent="1" vertex="1">
                    <mxGeometry x="560" y="770" width="40" height="20" as="geometry"/>
                </mxCell>
                <mxCell id="222" value="+" style="text;html=1;align=center;verticalAlign=middle;resizable=0;points=[];autosize=1;strokeColor=none;fillColor=none;" parent="1" vertex="1">
                    <mxGeometry x="600" y="770" width="20" height="20" as="geometry"/>
                </mxCell>
                <mxCell id="223" value="" style="rounded=0;whiteSpace=wrap;html=1;fillColor=#dae8fc;strokeColor=#6c8ebf;" parent="1" vertex="1">
                    <mxGeometry x="620" y="770" width="40" height="20" as="geometry"/>
                </mxCell>
                <mxCell id="224" value="+" style="text;html=1;align=center;verticalAlign=middle;resizable=0;points=[];autosize=1;strokeColor=none;fillColor=none;" parent="1" vertex="1">
                    <mxGeometry x="660" y="770" width="20" height="20" as="geometry"/>
                </mxCell>
                <mxCell id="225" value="" style="rounded=0;whiteSpace=wrap;html=1;fillColor=#d5e8d4;strokeColor=#82b366;" parent="1" vertex="1">
                    <mxGeometry x="680" y="770" width="40" height="20" as="geometry"/>
                </mxCell>
                <mxCell id="226" value="" style="endArrow=none;dashed=1;html=1;dashPattern=1 3;strokeWidth=2;" parent="1" edge="1">
                    <mxGeometry width="50" height="50" relative="1" as="geometry">
                        <mxPoint x="209.66" y="760" as="sourcePoint"/>
                        <mxPoint x="209.66" y="440" as="targetPoint"/>
                    </mxGeometry>
                </mxCell>
                <mxCell id="3eERPxe6xKQJWAf8Sffy-229" value="" style="ellipse;whiteSpace=wrap;html=1;aspect=fixed;" parent="1" vertex="1">
                    <mxGeometry x="220" y="40" width="20" height="20" as="geometry"/>
                </mxCell>
                <mxCell id="3eERPxe6xKQJWAf8Sffy-230" value="" style="ellipse;whiteSpace=wrap;html=1;aspect=fixed;" parent="1" vertex="1">
                    <mxGeometry x="260" y="40" width="20" height="20" as="geometry"/>
                </mxCell>
                <mxCell id="3eERPxe6xKQJWAf8Sffy-231" value="" style="ellipse;whiteSpace=wrap;html=1;aspect=fixed;" parent="1" vertex="1">
                    <mxGeometry x="300" y="40" width="20" height="20" as="geometry"/>
                </mxCell>
                <mxCell id="3eERPxe6xKQJWAf8Sffy-232" value="" style="ellipse;whiteSpace=wrap;html=1;aspect=fixed;" parent="1" vertex="1">
                    <mxGeometry x="340" y="40" width="20" height="20" as="geometry"/>
                </mxCell>
                <mxCell id="3eERPxe6xKQJWAf8Sffy-233" value="" style="ellipse;whiteSpace=wrap;html=1;aspect=fixed;" parent="1" vertex="1">
                    <mxGeometry x="220" y="80" width="20" height="20" as="geometry"/>
                </mxCell>
                <mxCell id="3eERPxe6xKQJWAf8Sffy-234" value="" style="ellipse;whiteSpace=wrap;html=1;aspect=fixed;" parent="1" vertex="1">
                    <mxGeometry x="260" y="80" width="20" height="20" as="geometry"/>
                </mxCell>
                <mxCell id="3eERPxe6xKQJWAf8Sffy-235" value="" style="ellipse;whiteSpace=wrap;html=1;aspect=fixed;" parent="1" vertex="1">
                    <mxGeometry x="300" y="80" width="20" height="20" as="geometry"/>
                </mxCell>
                <mxCell id="3eERPxe6xKQJWAf8Sffy-236" value="" style="ellipse;whiteSpace=wrap;html=1;aspect=fixed;" parent="1" vertex="1">
                    <mxGeometry x="340" y="80" width="20" height="20" as="geometry"/>
                </mxCell>
                <mxCell id="3eERPxe6xKQJWAf8Sffy-237" value="A" style="rounded=0;whiteSpace=wrap;html=1;fillColor=none;" parent="1" vertex="1">
                    <mxGeometry x="210" y="40" width="80" height="20" as="geometry"/>
                </mxCell>
                <mxCell id="3eERPxe6xKQJWAf8Sffy-238" value="B" style="rounded=0;whiteSpace=wrap;html=1;fillColor=none;" parent="1" vertex="1">
                    <mxGeometry x="290" y="40" width="80" height="20" as="geometry"/>
                </mxCell>
                <mxCell id="3eERPxe6xKQJWAf8Sffy-239" value="C" style="rounded=0;whiteSpace=wrap;html=1;fillColor=none;" parent="1" vertex="1">
                    <mxGeometry x="210" y="80" width="80" height="20" as="geometry"/>
                </mxCell>
                <mxCell id="3eERPxe6xKQJWAf8Sffy-240" value="D" style="rounded=0;whiteSpace=wrap;html=1;fillColor=none;" parent="1" vertex="1">
                    <mxGeometry x="290" y="80" width="80" height="20" as="geometry"/>
                </mxCell>
                <mxCell id="oEYoNpcb3EF5R4xYaGX7-229" value="$$n^{1.5}$$" style="text;html=1;align=center;verticalAlign=middle;resizable=0;points=[];autosize=1;strokeColor=none;fillColor=none;" parent="1" vertex="1">
                    <mxGeometry x="460" y="130" width="80" height="20" as="geometry"/>
                </mxCell>
                <mxCell id="oEYoNpcb3EF5R4xYaGX7-234" value="" style="rounded=0;whiteSpace=wrap;html=1;fillColor=#ffe6cc;strokeColor=#d79b00;" parent="1" vertex="1">
                    <mxGeometry x="560" y="400" width="40" height="20" as="geometry"/>
                </mxCell>
                <mxCell id="oEYoNpcb3EF5R4xYaGX7-235" value="+" style="text;html=1;align=center;verticalAlign=middle;resizable=0;points=[];autosize=1;strokeColor=none;fillColor=none;" parent="1" vertex="1">
                    <mxGeometry x="600" y="400" width="20" height="20" as="geometry"/>
                </mxCell>
                <mxCell id="oEYoNpcb3EF5R4xYaGX7-236" value="" style="rounded=0;whiteSpace=wrap;html=1;fillColor=#dae8fc;strokeColor=#6c8ebf;" parent="1" vertex="1">
                    <mxGeometry x="620" y="400" width="40" height="20" as="geometry"/>
                </mxCell>
                <mxCell id="oEYoNpcb3EF5R4xYaGX7-237" value="+" style="text;html=1;align=center;verticalAlign=middle;resizable=0;points=[];autosize=1;strokeColor=none;fillColor=none;" parent="1" vertex="1">
                    <mxGeometry x="660" y="400" width="20" height="20" as="geometry"/>
                </mxCell>
                <mxCell id="oEYoNpcb3EF5R4xYaGX7-238" value="" style="rounded=0;whiteSpace=wrap;html=1;fillColor=#d5e8d4;strokeColor=#82b366;" parent="1" vertex="1">
                    <mxGeometry x="680" y="400" width="40" height="20" as="geometry"/>
                </mxCell>
            </root>
        </mxGraphModel>
    </diagram>
    <diagram id="y7QvMdECXmproGQ9Gh9P" name="split for low">
        <mxGraphModel dx="1706" dy="1131" grid="1" gridSize="10" guides="1" tooltips="1" connect="1" arrows="1" fold="1" page="1" pageScale="1" pageWidth="827" pageHeight="1169" math="0" shadow="0">
            <root>
                <mxCell id="7a89-ohbQVopVEbhS7QO-0"/>
                <mxCell id="7a89-ohbQVopVEbhS7QO-1" parent="7a89-ohbQVopVEbhS7QO-0"/>
                <mxCell id="7a89-ohbQVopVEbhS7QO-2" value="" style="shape=parallelogram;perimeter=parallelogramPerimeter;whiteSpace=wrap;html=1;fixedSize=1;size=80;fillColor=#d5e8d4;strokeColor=#82b366;" parent="7a89-ohbQVopVEbhS7QO-1" vertex="1">
                    <mxGeometry x="30" y="250" width="160" height="80" as="geometry"/>
                </mxCell>
                <mxCell id="7a89-ohbQVopVEbhS7QO-3" value="" style="shape=parallelogram;perimeter=parallelogramPerimeter;whiteSpace=wrap;html=1;fixedSize=1;size=80;fillColor=#d5e8d4;strokeColor=#82b366;" parent="7a89-ohbQVopVEbhS7QO-1" vertex="1">
                    <mxGeometry x="110" y="250" width="200" height="80" as="geometry"/>
                </mxCell>
                <mxCell id="7a89-ohbQVopVEbhS7QO-4" value="" style="shape=parallelogram;perimeter=parallelogramPerimeter;whiteSpace=wrap;html=1;fixedSize=1;size=120;fillColor=#d5e8d4;strokeColor=#82b366;" parent="7a89-ohbQVopVEbhS7QO-1" vertex="1">
                    <mxGeometry x="110" y="130" width="200" height="120" as="geometry"/>
                </mxCell>
                <mxCell id="7a89-ohbQVopVEbhS7QO-5" value="" style="shape=parallelogram;perimeter=parallelogramPerimeter;whiteSpace=wrap;html=1;fixedSize=1;size=120;fillColor=#d5e8d4;strokeColor=#82b366;" parent="7a89-ohbQVopVEbhS7QO-1" vertex="1">
                    <mxGeometry x="190" y="130" width="240" height="120" as="geometry"/>
                </mxCell>
                <mxCell id="7a89-ohbQVopVEbhS7QO-6" value="" style="endArrow=none;html=1;" parent="7a89-ohbQVopVEbhS7QO-1" edge="1">
                    <mxGeometry width="50" height="50" relative="1" as="geometry">
                        <mxPoint x="160" y="120" as="sourcePoint"/>
                        <mxPoint x="400" y="120" as="targetPoint"/>
                    </mxGeometry>
                </mxCell>
                <mxCell id="7a89-ohbQVopVEbhS7QO-7" value="" style="endArrow=none;html=1;" parent="7a89-ohbQVopVEbhS7QO-1" edge="1">
                    <mxGeometry width="50" height="50" relative="1" as="geometry">
                        <mxPoint x="160" y="100" as="sourcePoint"/>
                        <mxPoint x="180" y="80" as="targetPoint"/>
                    </mxGeometry>
                </mxCell>
                <mxCell id="7a89-ohbQVopVEbhS7QO-8" value="" style="endArrow=none;html=1;" parent="7a89-ohbQVopVEbhS7QO-1" edge="1">
                    <mxGeometry width="50" height="50" relative="1" as="geometry">
                        <mxPoint x="160" y="80" as="sourcePoint"/>
                        <mxPoint x="180" y="100" as="targetPoint"/>
                    </mxGeometry>
                </mxCell>
                <mxCell id="7a89-ohbQVopVEbhS7QO-9" value="" style="ellipse;whiteSpace=wrap;html=1;aspect=fixed;" parent="7a89-ohbQVopVEbhS7QO-1" vertex="1">
                    <mxGeometry x="220" y="140" width="20" height="20" as="geometry"/>
                </mxCell>
                <mxCell id="7a89-ohbQVopVEbhS7QO-10" value="" style="ellipse;whiteSpace=wrap;html=1;aspect=fixed;" parent="7a89-ohbQVopVEbhS7QO-1" vertex="1">
                    <mxGeometry x="260" y="140" width="20" height="20" as="geometry"/>
                </mxCell>
                <mxCell id="7a89-ohbQVopVEbhS7QO-11" value="" style="ellipse;whiteSpace=wrap;html=1;aspect=fixed;" parent="7a89-ohbQVopVEbhS7QO-1" vertex="1">
                    <mxGeometry x="300" y="140" width="20" height="20" as="geometry"/>
                </mxCell>
                <mxCell id="7a89-ohbQVopVEbhS7QO-12" value="" style="ellipse;whiteSpace=wrap;html=1;aspect=fixed;" parent="7a89-ohbQVopVEbhS7QO-1" vertex="1">
                    <mxGeometry x="340" y="140" width="20" height="20" as="geometry"/>
                </mxCell>
                <mxCell id="7a89-ohbQVopVEbhS7QO-13" value="" style="ellipse;whiteSpace=wrap;html=1;aspect=fixed;" parent="7a89-ohbQVopVEbhS7QO-1" vertex="1">
                    <mxGeometry x="180" y="180" width="20" height="20" as="geometry"/>
                </mxCell>
                <mxCell id="7a89-ohbQVopVEbhS7QO-14" value="" style="ellipse;whiteSpace=wrap;html=1;aspect=fixed;" parent="7a89-ohbQVopVEbhS7QO-1" vertex="1">
                    <mxGeometry x="220" y="180" width="20" height="20" as="geometry"/>
                </mxCell>
                <mxCell id="7a89-ohbQVopVEbhS7QO-15" value="" style="ellipse;whiteSpace=wrap;html=1;aspect=fixed;" parent="7a89-ohbQVopVEbhS7QO-1" vertex="1">
                    <mxGeometry x="260" y="180" width="20" height="20" as="geometry"/>
                </mxCell>
                <mxCell id="7a89-ohbQVopVEbhS7QO-16" value="" style="ellipse;whiteSpace=wrap;html=1;aspect=fixed;" parent="7a89-ohbQVopVEbhS7QO-1" vertex="1">
                    <mxGeometry x="300" y="180" width="20" height="20" as="geometry"/>
                </mxCell>
                <mxCell id="7a89-ohbQVopVEbhS7QO-17" value="" style="ellipse;whiteSpace=wrap;html=1;aspect=fixed;" parent="7a89-ohbQVopVEbhS7QO-1" vertex="1">
                    <mxGeometry x="140" y="220" width="20" height="20" as="geometry"/>
                </mxCell>
                <mxCell id="7a89-ohbQVopVEbhS7QO-18" value="" style="ellipse;whiteSpace=wrap;html=1;aspect=fixed;" parent="7a89-ohbQVopVEbhS7QO-1" vertex="1">
                    <mxGeometry x="180" y="220" width="20" height="20" as="geometry"/>
                </mxCell>
                <mxCell id="7a89-ohbQVopVEbhS7QO-19" value="" style="ellipse;whiteSpace=wrap;html=1;aspect=fixed;" parent="7a89-ohbQVopVEbhS7QO-1" vertex="1">
                    <mxGeometry x="220" y="220" width="20" height="20" as="geometry"/>
                </mxCell>
                <mxCell id="7a89-ohbQVopVEbhS7QO-20" value="" style="ellipse;whiteSpace=wrap;html=1;aspect=fixed;" parent="7a89-ohbQVopVEbhS7QO-1" vertex="1">
                    <mxGeometry x="260" y="220" width="20" height="20" as="geometry"/>
                </mxCell>
                <mxCell id="7a89-ohbQVopVEbhS7QO-21" value="" style="ellipse;whiteSpace=wrap;html=1;aspect=fixed;" parent="7a89-ohbQVopVEbhS7QO-1" vertex="1">
                    <mxGeometry x="100" y="260" width="20" height="20" as="geometry"/>
                </mxCell>
                <mxCell id="7a89-ohbQVopVEbhS7QO-22" value="" style="ellipse;whiteSpace=wrap;html=1;aspect=fixed;" parent="7a89-ohbQVopVEbhS7QO-1" vertex="1">
                    <mxGeometry x="140" y="260" width="20" height="20" as="geometry"/>
                </mxCell>
                <mxCell id="7a89-ohbQVopVEbhS7QO-23" value="" style="ellipse;whiteSpace=wrap;html=1;aspect=fixed;" parent="7a89-ohbQVopVEbhS7QO-1" vertex="1">
                    <mxGeometry x="180" y="260" width="20" height="20" as="geometry"/>
                </mxCell>
                <mxCell id="7a89-ohbQVopVEbhS7QO-24" value="" style="ellipse;whiteSpace=wrap;html=1;aspect=fixed;" parent="7a89-ohbQVopVEbhS7QO-1" vertex="1">
                    <mxGeometry x="220" y="260" width="20" height="20" as="geometry"/>
                </mxCell>
                <mxCell id="7a89-ohbQVopVEbhS7QO-25" value="" style="endArrow=none;html=1;" parent="7a89-ohbQVopVEbhS7QO-1" edge="1">
                    <mxGeometry width="50" height="50" relative="1" as="geometry">
                        <mxPoint x="20" y="340" as="sourcePoint"/>
                        <mxPoint x="400" y="340" as="targetPoint"/>
                    </mxGeometry>
                </mxCell>
                <mxCell id="7a89-ohbQVopVEbhS7QO-26" value="" style="ellipse;whiteSpace=wrap;html=1;aspect=fixed;" parent="7a89-ohbQVopVEbhS7QO-1" vertex="1">
                    <mxGeometry x="220" y="360" width="20" height="20" as="geometry"/>
                </mxCell>
                <mxCell id="7a89-ohbQVopVEbhS7QO-27" value="" style="ellipse;whiteSpace=wrap;html=1;aspect=fixed;" parent="7a89-ohbQVopVEbhS7QO-1" vertex="1">
                    <mxGeometry x="260" y="360" width="20" height="20" as="geometry"/>
                </mxCell>
                <mxCell id="7a89-ohbQVopVEbhS7QO-28" value="" style="ellipse;whiteSpace=wrap;html=1;aspect=fixed;" parent="7a89-ohbQVopVEbhS7QO-1" vertex="1">
                    <mxGeometry x="300" y="360" width="20" height="20" as="geometry"/>
                </mxCell>
                <mxCell id="7a89-ohbQVopVEbhS7QO-29" value="" style="ellipse;whiteSpace=wrap;html=1;aspect=fixed;" parent="7a89-ohbQVopVEbhS7QO-1" vertex="1">
                    <mxGeometry x="340" y="360" width="20" height="20" as="geometry"/>
                </mxCell>
                <mxCell id="7a89-ohbQVopVEbhS7QO-30" value="" style="ellipse;whiteSpace=wrap;html=1;aspect=fixed;" parent="7a89-ohbQVopVEbhS7QO-1" vertex="1">
                    <mxGeometry x="60" y="360" width="20" height="20" as="geometry"/>
                </mxCell>
                <mxCell id="7a89-ohbQVopVEbhS7QO-31" value="" style="ellipse;whiteSpace=wrap;html=1;aspect=fixed;" parent="7a89-ohbQVopVEbhS7QO-1" vertex="1">
                    <mxGeometry x="100" y="360" width="20" height="20" as="geometry"/>
                </mxCell>
                <mxCell id="7a89-ohbQVopVEbhS7QO-32" value="" style="ellipse;whiteSpace=wrap;html=1;aspect=fixed;" parent="7a89-ohbQVopVEbhS7QO-1" vertex="1">
                    <mxGeometry x="140" y="360" width="20" height="20" as="geometry"/>
                </mxCell>
                <mxCell id="7a89-ohbQVopVEbhS7QO-33" value="" style="ellipse;whiteSpace=wrap;html=1;aspect=fixed;" parent="7a89-ohbQVopVEbhS7QO-1" vertex="1">
                    <mxGeometry x="180" y="360" width="20" height="20" as="geometry"/>
                </mxCell>
                <mxCell id="7a89-ohbQVopVEbhS7QO-34" value="carry" style="text;html=1;align=center;verticalAlign=middle;resizable=0;points=[];autosize=1;strokeColor=none;fillColor=none;" parent="7a89-ohbQVopVEbhS7QO-1" vertex="1">
                    <mxGeometry x="10" y="380" width="40" height="20" as="geometry"/>
                </mxCell>
                <mxCell id="7a89-ohbQVopVEbhS7QO-35" value="" style="ellipse;whiteSpace=wrap;html=1;aspect=fixed;" parent="7a89-ohbQVopVEbhS7QO-1" vertex="1">
                    <mxGeometry x="220" y="40" width="20" height="20" as="geometry"/>
                </mxCell>
                <mxCell id="7a89-ohbQVopVEbhS7QO-36" value="" style="ellipse;whiteSpace=wrap;html=1;aspect=fixed;" parent="7a89-ohbQVopVEbhS7QO-1" vertex="1">
                    <mxGeometry x="260" y="40" width="20" height="20" as="geometry"/>
                </mxCell>
                <mxCell id="7a89-ohbQVopVEbhS7QO-37" value="" style="ellipse;whiteSpace=wrap;html=1;aspect=fixed;" parent="7a89-ohbQVopVEbhS7QO-1" vertex="1">
                    <mxGeometry x="300" y="40" width="20" height="20" as="geometry"/>
                </mxCell>
                <mxCell id="7a89-ohbQVopVEbhS7QO-38" value="" style="ellipse;whiteSpace=wrap;html=1;aspect=fixed;" parent="7a89-ohbQVopVEbhS7QO-1" vertex="1">
                    <mxGeometry x="340" y="40" width="20" height="20" as="geometry"/>
                </mxCell>
                <mxCell id="7a89-ohbQVopVEbhS7QO-39" value="" style="ellipse;whiteSpace=wrap;html=1;aspect=fixed;" parent="7a89-ohbQVopVEbhS7QO-1" vertex="1">
                    <mxGeometry x="220" y="80" width="20" height="20" as="geometry"/>
                </mxCell>
                <mxCell id="7a89-ohbQVopVEbhS7QO-40" value="" style="ellipse;whiteSpace=wrap;html=1;aspect=fixed;" parent="7a89-ohbQVopVEbhS7QO-1" vertex="1">
                    <mxGeometry x="260" y="80" width="20" height="20" as="geometry"/>
                </mxCell>
                <mxCell id="7a89-ohbQVopVEbhS7QO-41" value="" style="ellipse;whiteSpace=wrap;html=1;aspect=fixed;" parent="7a89-ohbQVopVEbhS7QO-1" vertex="1">
                    <mxGeometry x="300" y="80" width="20" height="20" as="geometry"/>
                </mxCell>
                <mxCell id="7a89-ohbQVopVEbhS7QO-42" value="" style="ellipse;whiteSpace=wrap;html=1;aspect=fixed;" parent="7a89-ohbQVopVEbhS7QO-1" vertex="1">
                    <mxGeometry x="340" y="80" width="20" height="20" as="geometry"/>
                </mxCell>
                <mxCell id="7a89-ohbQVopVEbhS7QO-43" value="A" style="rounded=0;whiteSpace=wrap;html=1;fillColor=none;" parent="7a89-ohbQVopVEbhS7QO-1" vertex="1">
                    <mxGeometry x="210" y="40" width="80" height="20" as="geometry"/>
                </mxCell>
                <mxCell id="7a89-ohbQVopVEbhS7QO-44" value="B" style="rounded=0;whiteSpace=wrap;html=1;fillColor=none;" parent="7a89-ohbQVopVEbhS7QO-1" vertex="1">
                    <mxGeometry x="290" y="40" width="120" height="20" as="geometry"/>
                </mxCell>
                <mxCell id="7a89-ohbQVopVEbhS7QO-45" value="C" style="rounded=0;whiteSpace=wrap;html=1;fillColor=none;" parent="7a89-ohbQVopVEbhS7QO-1" vertex="1">
                    <mxGeometry x="210" y="80" width="80" height="20" as="geometry"/>
                </mxCell>
                <mxCell id="7a89-ohbQVopVEbhS7QO-46" value="D" style="rounded=0;whiteSpace=wrap;html=1;fillColor=none;" parent="7a89-ohbQVopVEbhS7QO-1" vertex="1">
                    <mxGeometry x="290" y="80" width="120" height="20" as="geometry"/>
                </mxCell>
                <mxCell id="7a89-ohbQVopVEbhS7QO-47" value="" style="ellipse;whiteSpace=wrap;html=1;aspect=fixed;" parent="7a89-ohbQVopVEbhS7QO-1" vertex="1">
                    <mxGeometry x="380" y="80" width="20" height="20" as="geometry"/>
                </mxCell>
                <mxCell id="7a89-ohbQVopVEbhS7QO-48" value="" style="ellipse;whiteSpace=wrap;html=1;aspect=fixed;" parent="7a89-ohbQVopVEbhS7QO-1" vertex="1">
                    <mxGeometry x="380" y="40" width="20" height="20" as="geometry"/>
                </mxCell>
                <mxCell id="7a89-ohbQVopVEbhS7QO-49" value="" style="ellipse;whiteSpace=wrap;html=1;aspect=fixed;" parent="7a89-ohbQVopVEbhS7QO-1" vertex="1">
                    <mxGeometry x="380" y="140" width="20" height="20" as="geometry"/>
                </mxCell>
                <mxCell id="7a89-ohbQVopVEbhS7QO-50" value="" style="ellipse;whiteSpace=wrap;html=1;aspect=fixed;" parent="7a89-ohbQVopVEbhS7QO-1" vertex="1">
                    <mxGeometry x="340" y="180" width="20" height="20" as="geometry"/>
                </mxCell>
                <mxCell id="7a89-ohbQVopVEbhS7QO-51" value="" style="ellipse;whiteSpace=wrap;html=1;aspect=fixed;" parent="7a89-ohbQVopVEbhS7QO-1" vertex="1">
                    <mxGeometry x="300" y="220" width="20" height="20" as="geometry"/>
                </mxCell>
                <mxCell id="7a89-ohbQVopVEbhS7QO-52" value="" style="ellipse;whiteSpace=wrap;html=1;aspect=fixed;" parent="7a89-ohbQVopVEbhS7QO-1" vertex="1">
                    <mxGeometry x="260" y="260" width="20" height="20" as="geometry"/>
                </mxCell>
                <mxCell id="7a89-ohbQVopVEbhS7QO-53" value="" style="ellipse;whiteSpace=wrap;html=1;aspect=fixed;" parent="7a89-ohbQVopVEbhS7QO-1" vertex="1">
                    <mxGeometry x="60" y="300" width="20" height="20" as="geometry"/>
                </mxCell>
                <mxCell id="7a89-ohbQVopVEbhS7QO-54" value="" style="ellipse;whiteSpace=wrap;html=1;aspect=fixed;" parent="7a89-ohbQVopVEbhS7QO-1" vertex="1">
                    <mxGeometry x="100" y="300" width="20" height="20" as="geometry"/>
                </mxCell>
                <mxCell id="7a89-ohbQVopVEbhS7QO-55" value="" style="ellipse;whiteSpace=wrap;html=1;aspect=fixed;" parent="7a89-ohbQVopVEbhS7QO-1" vertex="1">
                    <mxGeometry x="140" y="300" width="20" height="20" as="geometry"/>
                </mxCell>
                <mxCell id="7a89-ohbQVopVEbhS7QO-56" value="" style="ellipse;whiteSpace=wrap;html=1;aspect=fixed;" parent="7a89-ohbQVopVEbhS7QO-1" vertex="1">
                    <mxGeometry x="180" y="300" width="20" height="20" as="geometry"/>
                </mxCell>
                <mxCell id="7a89-ohbQVopVEbhS7QO-57" value="" style="ellipse;whiteSpace=wrap;html=1;aspect=fixed;" parent="7a89-ohbQVopVEbhS7QO-1" vertex="1">
                    <mxGeometry x="220" y="300" width="20" height="20" as="geometry"/>
                </mxCell>
                <mxCell id="uFk1ZXiNqmoLeXp5Oh-4-0" value="" style="ellipse;whiteSpace=wrap;html=1;aspect=fixed;" parent="7a89-ohbQVopVEbhS7QO-1" vertex="1">
                    <mxGeometry x="380" y="360" width="20" height="20" as="geometry"/>
                </mxCell>
                <mxCell id="uFk1ZXiNqmoLeXp5Oh-4-1" value="" style="ellipse;whiteSpace=wrap;html=1;aspect=fixed;" parent="7a89-ohbQVopVEbhS7QO-1" vertex="1">
                    <mxGeometry x="20" y="360" width="20" height="20" as="geometry"/>
                </mxCell>
                <mxCell id="XwkJ_UeddzFHIW3v2SFU-1" value="" style="shape=parallelogram;perimeter=parallelogramPerimeter;whiteSpace=wrap;html=1;fixedSize=1;size=80;" parent="7a89-ohbQVopVEbhS7QO-1" vertex="1">
                    <mxGeometry x="470" y="250" width="160" height="80" as="geometry"/>
                </mxCell>
                <mxCell id="XwkJ_UeddzFHIW3v2SFU-2" value="" style="shape=parallelogram;perimeter=parallelogramPerimeter;whiteSpace=wrap;html=1;fixedSize=1;size=80;fillColor=#d5e8d4;strokeColor=#82b366;" parent="7a89-ohbQVopVEbhS7QO-1" vertex="1">
                    <mxGeometry x="550" y="250" width="200" height="80" as="geometry"/>
                </mxCell>
                <mxCell id="XwkJ_UeddzFHIW3v2SFU-3" value="" style="shape=parallelogram;perimeter=parallelogramPerimeter;whiteSpace=wrap;html=1;fixedSize=1;size=120;fillColor=#dae8fc;strokeColor=#6c8ebf;" parent="7a89-ohbQVopVEbhS7QO-1" vertex="1">
                    <mxGeometry x="550" y="130" width="200" height="120" as="geometry"/>
                </mxCell>
                <mxCell id="XwkJ_UeddzFHIW3v2SFU-4" value="" style="shape=parallelogram;perimeter=parallelogramPerimeter;whiteSpace=wrap;html=1;fixedSize=1;size=120;fillColor=#ffe6cc;strokeColor=#d79b00;" parent="7a89-ohbQVopVEbhS7QO-1" vertex="1">
                    <mxGeometry x="630" y="130" width="240" height="120" as="geometry"/>
                </mxCell>
                <mxCell id="XwkJ_UeddzFHIW3v2SFU-5" value="" style="endArrow=none;html=1;" parent="7a89-ohbQVopVEbhS7QO-1" edge="1">
                    <mxGeometry width="50" height="50" relative="1" as="geometry">
                        <mxPoint x="600" y="120" as="sourcePoint"/>
                        <mxPoint x="840" y="120" as="targetPoint"/>
                    </mxGeometry>
                </mxCell>
                <mxCell id="XwkJ_UeddzFHIW3v2SFU-6" value="" style="endArrow=none;html=1;" parent="7a89-ohbQVopVEbhS7QO-1" edge="1">
                    <mxGeometry width="50" height="50" relative="1" as="geometry">
                        <mxPoint x="600" y="100" as="sourcePoint"/>
                        <mxPoint x="620" y="80" as="targetPoint"/>
                    </mxGeometry>
                </mxCell>
                <mxCell id="XwkJ_UeddzFHIW3v2SFU-7" value="" style="endArrow=none;html=1;" parent="7a89-ohbQVopVEbhS7QO-1" edge="1">
                    <mxGeometry width="50" height="50" relative="1" as="geometry">
                        <mxPoint x="600" y="80" as="sourcePoint"/>
                        <mxPoint x="620" y="100" as="targetPoint"/>
                    </mxGeometry>
                </mxCell>
                <mxCell id="XwkJ_UeddzFHIW3v2SFU-8" value="" style="ellipse;whiteSpace=wrap;html=1;aspect=fixed;" parent="7a89-ohbQVopVEbhS7QO-1" vertex="1">
                    <mxGeometry x="660" y="140" width="20" height="20" as="geometry"/>
                </mxCell>
                <mxCell id="XwkJ_UeddzFHIW3v2SFU-9" value="" style="ellipse;whiteSpace=wrap;html=1;aspect=fixed;" parent="7a89-ohbQVopVEbhS7QO-1" vertex="1">
                    <mxGeometry x="700" y="140" width="20" height="20" as="geometry"/>
                </mxCell>
                <mxCell id="XwkJ_UeddzFHIW3v2SFU-10" value="" style="ellipse;whiteSpace=wrap;html=1;aspect=fixed;" parent="7a89-ohbQVopVEbhS7QO-1" vertex="1">
                    <mxGeometry x="740" y="140" width="20" height="20" as="geometry"/>
                </mxCell>
                <mxCell id="XwkJ_UeddzFHIW3v2SFU-11" value="" style="ellipse;whiteSpace=wrap;html=1;aspect=fixed;" parent="7a89-ohbQVopVEbhS7QO-1" vertex="1">
                    <mxGeometry x="780" y="140" width="20" height="20" as="geometry"/>
                </mxCell>
                <mxCell id="XwkJ_UeddzFHIW3v2SFU-12" value="" style="ellipse;whiteSpace=wrap;html=1;aspect=fixed;" parent="7a89-ohbQVopVEbhS7QO-1" vertex="1">
                    <mxGeometry x="620" y="180" width="20" height="20" as="geometry"/>
                </mxCell>
                <mxCell id="XwkJ_UeddzFHIW3v2SFU-13" value="" style="ellipse;whiteSpace=wrap;html=1;aspect=fixed;" parent="7a89-ohbQVopVEbhS7QO-1" vertex="1">
                    <mxGeometry x="660" y="180" width="20" height="20" as="geometry"/>
                </mxCell>
                <mxCell id="XwkJ_UeddzFHIW3v2SFU-14" value="" style="ellipse;whiteSpace=wrap;html=1;aspect=fixed;" parent="7a89-ohbQVopVEbhS7QO-1" vertex="1">
                    <mxGeometry x="700" y="180" width="20" height="20" as="geometry"/>
                </mxCell>
                <mxCell id="XwkJ_UeddzFHIW3v2SFU-15" value="" style="ellipse;whiteSpace=wrap;html=1;aspect=fixed;" parent="7a89-ohbQVopVEbhS7QO-1" vertex="1">
                    <mxGeometry x="740" y="180" width="20" height="20" as="geometry"/>
                </mxCell>
                <mxCell id="XwkJ_UeddzFHIW3v2SFU-16" value="" style="ellipse;whiteSpace=wrap;html=1;aspect=fixed;" parent="7a89-ohbQVopVEbhS7QO-1" vertex="1">
                    <mxGeometry x="580" y="220" width="20" height="20" as="geometry"/>
                </mxCell>
                <mxCell id="XwkJ_UeddzFHIW3v2SFU-17" value="" style="ellipse;whiteSpace=wrap;html=1;aspect=fixed;" parent="7a89-ohbQVopVEbhS7QO-1" vertex="1">
                    <mxGeometry x="620" y="220" width="20" height="20" as="geometry"/>
                </mxCell>
                <mxCell id="XwkJ_UeddzFHIW3v2SFU-18" value="" style="ellipse;whiteSpace=wrap;html=1;aspect=fixed;" parent="7a89-ohbQVopVEbhS7QO-1" vertex="1">
                    <mxGeometry x="660" y="220" width="20" height="20" as="geometry"/>
                </mxCell>
                <mxCell id="XwkJ_UeddzFHIW3v2SFU-19" value="" style="ellipse;whiteSpace=wrap;html=1;aspect=fixed;" parent="7a89-ohbQVopVEbhS7QO-1" vertex="1">
                    <mxGeometry x="700" y="220" width="20" height="20" as="geometry"/>
                </mxCell>
                <mxCell id="XwkJ_UeddzFHIW3v2SFU-20" value="" style="ellipse;whiteSpace=wrap;html=1;aspect=fixed;" parent="7a89-ohbQVopVEbhS7QO-1" vertex="1">
                    <mxGeometry x="540" y="260" width="20" height="20" as="geometry"/>
                </mxCell>
                <mxCell id="XwkJ_UeddzFHIW3v2SFU-21" value="" style="ellipse;whiteSpace=wrap;html=1;aspect=fixed;" parent="7a89-ohbQVopVEbhS7QO-1" vertex="1">
                    <mxGeometry x="580" y="260" width="20" height="20" as="geometry"/>
                </mxCell>
                <mxCell id="XwkJ_UeddzFHIW3v2SFU-22" value="" style="ellipse;whiteSpace=wrap;html=1;aspect=fixed;" parent="7a89-ohbQVopVEbhS7QO-1" vertex="1">
                    <mxGeometry x="620" y="260" width="20" height="20" as="geometry"/>
                </mxCell>
                <mxCell id="XwkJ_UeddzFHIW3v2SFU-23" value="" style="ellipse;whiteSpace=wrap;html=1;aspect=fixed;" parent="7a89-ohbQVopVEbhS7QO-1" vertex="1">
                    <mxGeometry x="660" y="260" width="20" height="20" as="geometry"/>
                </mxCell>
                <mxCell id="XwkJ_UeddzFHIW3v2SFU-24" value="" style="endArrow=none;html=1;" parent="7a89-ohbQVopVEbhS7QO-1" edge="1">
                    <mxGeometry width="50" height="50" relative="1" as="geometry">
                        <mxPoint x="460" y="340" as="sourcePoint"/>
                        <mxPoint x="840" y="340" as="targetPoint"/>
                    </mxGeometry>
                </mxCell>
                <mxCell id="XwkJ_UeddzFHIW3v2SFU-25" value="" style="ellipse;whiteSpace=wrap;html=1;aspect=fixed;" parent="7a89-ohbQVopVEbhS7QO-1" vertex="1">
                    <mxGeometry x="660" y="360" width="20" height="20" as="geometry"/>
                </mxCell>
                <mxCell id="XwkJ_UeddzFHIW3v2SFU-26" value="" style="ellipse;whiteSpace=wrap;html=1;aspect=fixed;" parent="7a89-ohbQVopVEbhS7QO-1" vertex="1">
                    <mxGeometry x="700" y="360" width="20" height="20" as="geometry"/>
                </mxCell>
                <mxCell id="XwkJ_UeddzFHIW3v2SFU-27" value="" style="ellipse;whiteSpace=wrap;html=1;aspect=fixed;" parent="7a89-ohbQVopVEbhS7QO-1" vertex="1">
                    <mxGeometry x="740" y="360" width="20" height="20" as="geometry"/>
                </mxCell>
                <mxCell id="XwkJ_UeddzFHIW3v2SFU-28" value="" style="ellipse;whiteSpace=wrap;html=1;aspect=fixed;" parent="7a89-ohbQVopVEbhS7QO-1" vertex="1">
                    <mxGeometry x="780" y="360" width="20" height="20" as="geometry"/>
                </mxCell>
                <mxCell id="XwkJ_UeddzFHIW3v2SFU-29" value="" style="ellipse;whiteSpace=wrap;html=1;aspect=fixed;" parent="7a89-ohbQVopVEbhS7QO-1" vertex="1">
                    <mxGeometry x="500" y="360" width="20" height="20" as="geometry"/>
                </mxCell>
                <mxCell id="XwkJ_UeddzFHIW3v2SFU-30" value="" style="ellipse;whiteSpace=wrap;html=1;aspect=fixed;" parent="7a89-ohbQVopVEbhS7QO-1" vertex="1">
                    <mxGeometry x="540" y="360" width="20" height="20" as="geometry"/>
                </mxCell>
                <mxCell id="XwkJ_UeddzFHIW3v2SFU-31" value="" style="ellipse;whiteSpace=wrap;html=1;aspect=fixed;" parent="7a89-ohbQVopVEbhS7QO-1" vertex="1">
                    <mxGeometry x="580" y="360" width="20" height="20" as="geometry"/>
                </mxCell>
                <mxCell id="XwkJ_UeddzFHIW3v2SFU-32" value="" style="ellipse;whiteSpace=wrap;html=1;aspect=fixed;" parent="7a89-ohbQVopVEbhS7QO-1" vertex="1">
                    <mxGeometry x="620" y="360" width="20" height="20" as="geometry"/>
                </mxCell>
                <mxCell id="XwkJ_UeddzFHIW3v2SFU-33" value="carry" style="text;html=1;align=center;verticalAlign=middle;resizable=0;points=[];autosize=1;strokeColor=none;fillColor=none;" parent="7a89-ohbQVopVEbhS7QO-1" vertex="1">
                    <mxGeometry x="450" y="380" width="40" height="20" as="geometry"/>
                </mxCell>
                <mxCell id="XwkJ_UeddzFHIW3v2SFU-34" value="" style="ellipse;whiteSpace=wrap;html=1;aspect=fixed;" parent="7a89-ohbQVopVEbhS7QO-1" vertex="1">
                    <mxGeometry x="660" y="40" width="20" height="20" as="geometry"/>
                </mxCell>
                <mxCell id="XwkJ_UeddzFHIW3v2SFU-35" value="" style="ellipse;whiteSpace=wrap;html=1;aspect=fixed;" parent="7a89-ohbQVopVEbhS7QO-1" vertex="1">
                    <mxGeometry x="700" y="40" width="20" height="20" as="geometry"/>
                </mxCell>
                <mxCell id="XwkJ_UeddzFHIW3v2SFU-36" value="" style="ellipse;whiteSpace=wrap;html=1;aspect=fixed;" parent="7a89-ohbQVopVEbhS7QO-1" vertex="1">
                    <mxGeometry x="740" y="40" width="20" height="20" as="geometry"/>
                </mxCell>
                <mxCell id="XwkJ_UeddzFHIW3v2SFU-37" value="" style="ellipse;whiteSpace=wrap;html=1;aspect=fixed;" parent="7a89-ohbQVopVEbhS7QO-1" vertex="1">
                    <mxGeometry x="780" y="40" width="20" height="20" as="geometry"/>
                </mxCell>
                <mxCell id="XwkJ_UeddzFHIW3v2SFU-38" value="" style="ellipse;whiteSpace=wrap;html=1;aspect=fixed;" parent="7a89-ohbQVopVEbhS7QO-1" vertex="1">
                    <mxGeometry x="660" y="80" width="20" height="20" as="geometry"/>
                </mxCell>
                <mxCell id="XwkJ_UeddzFHIW3v2SFU-39" value="" style="ellipse;whiteSpace=wrap;html=1;aspect=fixed;" parent="7a89-ohbQVopVEbhS7QO-1" vertex="1">
                    <mxGeometry x="700" y="80" width="20" height="20" as="geometry"/>
                </mxCell>
                <mxCell id="XwkJ_UeddzFHIW3v2SFU-40" value="" style="ellipse;whiteSpace=wrap;html=1;aspect=fixed;" parent="7a89-ohbQVopVEbhS7QO-1" vertex="1">
                    <mxGeometry x="740" y="80" width="20" height="20" as="geometry"/>
                </mxCell>
                <mxCell id="XwkJ_UeddzFHIW3v2SFU-41" value="" style="ellipse;whiteSpace=wrap;html=1;aspect=fixed;" parent="7a89-ohbQVopVEbhS7QO-1" vertex="1">
                    <mxGeometry x="780" y="80" width="20" height="20" as="geometry"/>
                </mxCell>
                <mxCell id="XwkJ_UeddzFHIW3v2SFU-42" value="A" style="rounded=0;whiteSpace=wrap;html=1;fillColor=none;" parent="7a89-ohbQVopVEbhS7QO-1" vertex="1">
                    <mxGeometry x="650" y="40" width="80" height="20" as="geometry"/>
                </mxCell>
                <mxCell id="XwkJ_UeddzFHIW3v2SFU-43" value="B" style="rounded=0;whiteSpace=wrap;html=1;fillColor=none;" parent="7a89-ohbQVopVEbhS7QO-1" vertex="1">
                    <mxGeometry x="730" y="40" width="120" height="20" as="geometry"/>
                </mxCell>
                <mxCell id="XwkJ_UeddzFHIW3v2SFU-44" value="C" style="rounded=0;whiteSpace=wrap;html=1;fillColor=none;" parent="7a89-ohbQVopVEbhS7QO-1" vertex="1">
                    <mxGeometry x="650" y="80" width="80" height="20" as="geometry"/>
                </mxCell>
                <mxCell id="XwkJ_UeddzFHIW3v2SFU-45" value="D" style="rounded=0;whiteSpace=wrap;html=1;fillColor=none;" parent="7a89-ohbQVopVEbhS7QO-1" vertex="1">
                    <mxGeometry x="730" y="80" width="120" height="20" as="geometry"/>
                </mxCell>
                <mxCell id="XwkJ_UeddzFHIW3v2SFU-46" value="" style="ellipse;whiteSpace=wrap;html=1;aspect=fixed;" parent="7a89-ohbQVopVEbhS7QO-1" vertex="1">
                    <mxGeometry x="820" y="80" width="20" height="20" as="geometry"/>
                </mxCell>
                <mxCell id="XwkJ_UeddzFHIW3v2SFU-47" value="" style="ellipse;whiteSpace=wrap;html=1;aspect=fixed;" parent="7a89-ohbQVopVEbhS7QO-1" vertex="1">
                    <mxGeometry x="820" y="40" width="20" height="20" as="geometry"/>
                </mxCell>
                <mxCell id="XwkJ_UeddzFHIW3v2SFU-48" value="" style="ellipse;whiteSpace=wrap;html=1;aspect=fixed;" parent="7a89-ohbQVopVEbhS7QO-1" vertex="1">
                    <mxGeometry x="820" y="140" width="20" height="20" as="geometry"/>
                </mxCell>
                <mxCell id="XwkJ_UeddzFHIW3v2SFU-49" value="" style="ellipse;whiteSpace=wrap;html=1;aspect=fixed;" parent="7a89-ohbQVopVEbhS7QO-1" vertex="1">
                    <mxGeometry x="780" y="180" width="20" height="20" as="geometry"/>
                </mxCell>
                <mxCell id="XwkJ_UeddzFHIW3v2SFU-50" value="" style="ellipse;whiteSpace=wrap;html=1;aspect=fixed;" parent="7a89-ohbQVopVEbhS7QO-1" vertex="1">
                    <mxGeometry x="740" y="220" width="20" height="20" as="geometry"/>
                </mxCell>
                <mxCell id="XwkJ_UeddzFHIW3v2SFU-51" value="" style="ellipse;whiteSpace=wrap;html=1;aspect=fixed;" parent="7a89-ohbQVopVEbhS7QO-1" vertex="1">
                    <mxGeometry x="700" y="260" width="20" height="20" as="geometry"/>
                </mxCell>
                <mxCell id="XwkJ_UeddzFHIW3v2SFU-52" value="" style="ellipse;whiteSpace=wrap;html=1;aspect=fixed;" parent="7a89-ohbQVopVEbhS7QO-1" vertex="1">
                    <mxGeometry x="500" y="300" width="20" height="20" as="geometry"/>
                </mxCell>
                <mxCell id="XwkJ_UeddzFHIW3v2SFU-53" value="" style="ellipse;whiteSpace=wrap;html=1;aspect=fixed;" parent="7a89-ohbQVopVEbhS7QO-1" vertex="1">
                    <mxGeometry x="540" y="300" width="20" height="20" as="geometry"/>
                </mxCell>
                <mxCell id="XwkJ_UeddzFHIW3v2SFU-54" value="" style="ellipse;whiteSpace=wrap;html=1;aspect=fixed;" parent="7a89-ohbQVopVEbhS7QO-1" vertex="1">
                    <mxGeometry x="580" y="300" width="20" height="20" as="geometry"/>
                </mxCell>
                <mxCell id="XwkJ_UeddzFHIW3v2SFU-55" value="" style="ellipse;whiteSpace=wrap;html=1;aspect=fixed;" parent="7a89-ohbQVopVEbhS7QO-1" vertex="1">
                    <mxGeometry x="620" y="300" width="20" height="20" as="geometry"/>
                </mxCell>
                <mxCell id="XwkJ_UeddzFHIW3v2SFU-56" value="" style="ellipse;whiteSpace=wrap;html=1;aspect=fixed;" parent="7a89-ohbQVopVEbhS7QO-1" vertex="1">
                    <mxGeometry x="660" y="300" width="20" height="20" as="geometry"/>
                </mxCell>
                <mxCell id="XwkJ_UeddzFHIW3v2SFU-57" value="" style="ellipse;whiteSpace=wrap;html=1;aspect=fixed;" parent="7a89-ohbQVopVEbhS7QO-1" vertex="1">
                    <mxGeometry x="820" y="360" width="20" height="20" as="geometry"/>
                </mxCell>
                <mxCell id="XwkJ_UeddzFHIW3v2SFU-58" value="" style="ellipse;whiteSpace=wrap;html=1;aspect=fixed;" parent="7a89-ohbQVopVEbhS7QO-1" vertex="1">
                    <mxGeometry x="460" y="360" width="20" height="20" as="geometry"/>
                </mxCell>
                <mxCell id="XwkJ_UeddzFHIW3v2SFU-59" value="" style="endArrow=none;dashed=1;html=1;dashPattern=1 3;strokeWidth=2;exitX=0;exitY=0;exitDx=0;exitDy=0;" parent="7a89-ohbQVopVEbhS7QO-1" source="XwkJ_UeddzFHIW3v2SFU-42" edge="1">
                    <mxGeometry width="50" height="50" relative="1" as="geometry">
                        <mxPoint x="640" y="40" as="sourcePoint"/>
                        <mxPoint x="650" y="400" as="targetPoint"/>
                    </mxGeometry>
                </mxCell>
                <mxCell id="5bpesTeWsDyr1P12P_9p-0" value="" style="shape=parallelogram;perimeter=parallelogramPerimeter;whiteSpace=wrap;html=1;fixedSize=1;size=80;fillColor=#ffe6cc;strokeColor=#d79b00;" parent="7a89-ohbQVopVEbhS7QO-1" vertex="1">
                    <mxGeometry x="710" y="530" width="160" height="80" as="geometry"/>
                </mxCell>
                <mxCell id="5bpesTeWsDyr1P12P_9p-1" value="" style="shape=parallelogram;perimeter=parallelogramPerimeter;whiteSpace=wrap;html=1;fixedSize=1;size=80;fillColor=#d5e8d4;strokeColor=#82b366;" parent="7a89-ohbQVopVEbhS7QO-1" vertex="1">
                    <mxGeometry x="590" y="530" width="200" height="80" as="geometry"/>
                </mxCell>
                <mxCell id="5bpesTeWsDyr1P12P_9p-2" value="" style="shape=parallelogram;perimeter=parallelogramPerimeter;whiteSpace=wrap;html=1;fixedSize=1;size=120;fillColor=#dae8fc;strokeColor=#6c8ebf;" parent="7a89-ohbQVopVEbhS7QO-1" vertex="1">
                    <mxGeometry x="590" y="610" width="200" height="120" as="geometry"/>
                </mxCell>
                <mxCell id="5bpesTeWsDyr1P12P_9p-4" value="" style="endArrow=none;html=1;" parent="7a89-ohbQVopVEbhS7QO-1" edge="1">
                    <mxGeometry width="50" height="50" relative="1" as="geometry">
                        <mxPoint x="600" y="520" as="sourcePoint"/>
                        <mxPoint x="840" y="520" as="targetPoint"/>
                    </mxGeometry>
                </mxCell>
                <mxCell id="5bpesTeWsDyr1P12P_9p-5" value="" style="endArrow=none;html=1;" parent="7a89-ohbQVopVEbhS7QO-1" edge="1">
                    <mxGeometry width="50" height="50" relative="1" as="geometry">
                        <mxPoint x="600" y="500" as="sourcePoint"/>
                        <mxPoint x="620" y="480" as="targetPoint"/>
                    </mxGeometry>
                </mxCell>
                <mxCell id="5bpesTeWsDyr1P12P_9p-6" value="" style="endArrow=none;html=1;" parent="7a89-ohbQVopVEbhS7QO-1" edge="1">
                    <mxGeometry width="50" height="50" relative="1" as="geometry">
                        <mxPoint x="600" y="480" as="sourcePoint"/>
                        <mxPoint x="620" y="500" as="targetPoint"/>
                    </mxGeometry>
                </mxCell>
                <mxCell id="5bpesTeWsDyr1P12P_9p-7" value="" style="ellipse;whiteSpace=wrap;html=1;aspect=fixed;" parent="7a89-ohbQVopVEbhS7QO-1" vertex="1">
                    <mxGeometry x="660" y="540" width="20" height="20" as="geometry"/>
                </mxCell>
                <mxCell id="5bpesTeWsDyr1P12P_9p-8" value="" style="ellipse;whiteSpace=wrap;html=1;aspect=fixed;" parent="7a89-ohbQVopVEbhS7QO-1" vertex="1">
                    <mxGeometry x="700" y="540" width="20" height="20" as="geometry"/>
                </mxCell>
                <mxCell id="5bpesTeWsDyr1P12P_9p-9" value="" style="ellipse;whiteSpace=wrap;html=1;aspect=fixed;" parent="7a89-ohbQVopVEbhS7QO-1" vertex="1">
                    <mxGeometry x="740" y="540" width="20" height="20" as="geometry"/>
                </mxCell>
                <mxCell id="5bpesTeWsDyr1P12P_9p-10" value="" style="ellipse;whiteSpace=wrap;html=1;aspect=fixed;" parent="7a89-ohbQVopVEbhS7QO-1" vertex="1">
                    <mxGeometry x="780" y="540" width="20" height="20" as="geometry"/>
                </mxCell>
                <mxCell id="5bpesTeWsDyr1P12P_9p-11" value="" style="ellipse;whiteSpace=wrap;html=1;aspect=fixed;" parent="7a89-ohbQVopVEbhS7QO-1" vertex="1">
                    <mxGeometry x="620" y="580" width="20" height="20" as="geometry"/>
                </mxCell>
                <mxCell id="5bpesTeWsDyr1P12P_9p-12" value="" style="ellipse;whiteSpace=wrap;html=1;aspect=fixed;" parent="7a89-ohbQVopVEbhS7QO-1" vertex="1">
                    <mxGeometry x="660" y="580" width="20" height="20" as="geometry"/>
                </mxCell>
                <mxCell id="5bpesTeWsDyr1P12P_9p-13" value="" style="ellipse;whiteSpace=wrap;html=1;aspect=fixed;" parent="7a89-ohbQVopVEbhS7QO-1" vertex="1">
                    <mxGeometry x="700" y="580" width="20" height="20" as="geometry"/>
                </mxCell>
                <mxCell id="5bpesTeWsDyr1P12P_9p-14" value="" style="ellipse;whiteSpace=wrap;html=1;aspect=fixed;" parent="7a89-ohbQVopVEbhS7QO-1" vertex="1">
                    <mxGeometry x="740" y="580" width="20" height="20" as="geometry"/>
                </mxCell>
                <mxCell id="5bpesTeWsDyr1P12P_9p-15" value="" style="ellipse;whiteSpace=wrap;html=1;aspect=fixed;" parent="7a89-ohbQVopVEbhS7QO-1" vertex="1">
                    <mxGeometry x="580" y="620" width="20" height="20" as="geometry"/>
                </mxCell>
                <mxCell id="5bpesTeWsDyr1P12P_9p-16" value="" style="ellipse;whiteSpace=wrap;html=1;aspect=fixed;" parent="7a89-ohbQVopVEbhS7QO-1" vertex="1">
                    <mxGeometry x="620" y="620" width="20" height="20" as="geometry"/>
                </mxCell>
                <mxCell id="5bpesTeWsDyr1P12P_9p-17" value="" style="ellipse;whiteSpace=wrap;html=1;aspect=fixed;" parent="7a89-ohbQVopVEbhS7QO-1" vertex="1">
                    <mxGeometry x="660" y="620" width="20" height="20" as="geometry"/>
                </mxCell>
                <mxCell id="5bpesTeWsDyr1P12P_9p-18" value="" style="ellipse;whiteSpace=wrap;html=1;aspect=fixed;" parent="7a89-ohbQVopVEbhS7QO-1" vertex="1">
                    <mxGeometry x="700" y="620" width="20" height="20" as="geometry"/>
                </mxCell>
                <mxCell id="5bpesTeWsDyr1P12P_9p-19" value="" style="ellipse;whiteSpace=wrap;html=1;aspect=fixed;" parent="7a89-ohbQVopVEbhS7QO-1" vertex="1">
                    <mxGeometry x="540" y="660" width="20" height="20" as="geometry"/>
                </mxCell>
                <mxCell id="5bpesTeWsDyr1P12P_9p-20" value="" style="ellipse;whiteSpace=wrap;html=1;aspect=fixed;" parent="7a89-ohbQVopVEbhS7QO-1" vertex="1">
                    <mxGeometry x="580" y="660" width="20" height="20" as="geometry"/>
                </mxCell>
                <mxCell id="5bpesTeWsDyr1P12P_9p-21" value="" style="ellipse;whiteSpace=wrap;html=1;aspect=fixed;" parent="7a89-ohbQVopVEbhS7QO-1" vertex="1">
                    <mxGeometry x="620" y="660" width="20" height="20" as="geometry"/>
                </mxCell>
                <mxCell id="5bpesTeWsDyr1P12P_9p-22" value="" style="ellipse;whiteSpace=wrap;html=1;aspect=fixed;" parent="7a89-ohbQVopVEbhS7QO-1" vertex="1">
                    <mxGeometry x="660" y="660" width="20" height="20" as="geometry"/>
                </mxCell>
                <mxCell id="5bpesTeWsDyr1P12P_9p-23" value="" style="endArrow=none;html=1;" parent="7a89-ohbQVopVEbhS7QO-1" edge="1">
                    <mxGeometry width="50" height="50" relative="1" as="geometry">
                        <mxPoint x="460" y="740" as="sourcePoint"/>
                        <mxPoint x="840" y="740" as="targetPoint"/>
                    </mxGeometry>
                </mxCell>
                <mxCell id="5bpesTeWsDyr1P12P_9p-24" value="" style="ellipse;whiteSpace=wrap;html=1;aspect=fixed;" parent="7a89-ohbQVopVEbhS7QO-1" vertex="1">
                    <mxGeometry x="660" y="760" width="20" height="20" as="geometry"/>
                </mxCell>
                <mxCell id="5bpesTeWsDyr1P12P_9p-25" value="" style="ellipse;whiteSpace=wrap;html=1;aspect=fixed;" parent="7a89-ohbQVopVEbhS7QO-1" vertex="1">
                    <mxGeometry x="700" y="760" width="20" height="20" as="geometry"/>
                </mxCell>
                <mxCell id="5bpesTeWsDyr1P12P_9p-26" value="" style="ellipse;whiteSpace=wrap;html=1;aspect=fixed;" parent="7a89-ohbQVopVEbhS7QO-1" vertex="1">
                    <mxGeometry x="740" y="760" width="20" height="20" as="geometry"/>
                </mxCell>
                <mxCell id="5bpesTeWsDyr1P12P_9p-27" value="" style="ellipse;whiteSpace=wrap;html=1;aspect=fixed;" parent="7a89-ohbQVopVEbhS7QO-1" vertex="1">
                    <mxGeometry x="780" y="760" width="20" height="20" as="geometry"/>
                </mxCell>
                <mxCell id="5bpesTeWsDyr1P12P_9p-28" value="" style="ellipse;whiteSpace=wrap;html=1;aspect=fixed;" parent="7a89-ohbQVopVEbhS7QO-1" vertex="1">
                    <mxGeometry x="500" y="760" width="20" height="20" as="geometry"/>
                </mxCell>
                <mxCell id="5bpesTeWsDyr1P12P_9p-29" value="" style="ellipse;whiteSpace=wrap;html=1;aspect=fixed;" parent="7a89-ohbQVopVEbhS7QO-1" vertex="1">
                    <mxGeometry x="540" y="760" width="20" height="20" as="geometry"/>
                </mxCell>
                <mxCell id="5bpesTeWsDyr1P12P_9p-30" value="" style="ellipse;whiteSpace=wrap;html=1;aspect=fixed;" parent="7a89-ohbQVopVEbhS7QO-1" vertex="1">
                    <mxGeometry x="580" y="760" width="20" height="20" as="geometry"/>
                </mxCell>
                <mxCell id="5bpesTeWsDyr1P12P_9p-31" value="" style="ellipse;whiteSpace=wrap;html=1;aspect=fixed;" parent="7a89-ohbQVopVEbhS7QO-1" vertex="1">
                    <mxGeometry x="620" y="760" width="20" height="20" as="geometry"/>
                </mxCell>
                <mxCell id="5bpesTeWsDyr1P12P_9p-32" value="" style="ellipse;whiteSpace=wrap;html=1;aspect=fixed;" parent="7a89-ohbQVopVEbhS7QO-1" vertex="1">
                    <mxGeometry x="660" y="440" width="20" height="20" as="geometry"/>
                </mxCell>
                <mxCell id="5bpesTeWsDyr1P12P_9p-33" value="" style="ellipse;whiteSpace=wrap;html=1;aspect=fixed;" parent="7a89-ohbQVopVEbhS7QO-1" vertex="1">
                    <mxGeometry x="700" y="440" width="20" height="20" as="geometry"/>
                </mxCell>
                <mxCell id="5bpesTeWsDyr1P12P_9p-34" value="" style="ellipse;whiteSpace=wrap;html=1;aspect=fixed;" parent="7a89-ohbQVopVEbhS7QO-1" vertex="1">
                    <mxGeometry x="740" y="440" width="20" height="20" as="geometry"/>
                </mxCell>
                <mxCell id="5bpesTeWsDyr1P12P_9p-35" value="" style="ellipse;whiteSpace=wrap;html=1;aspect=fixed;" parent="7a89-ohbQVopVEbhS7QO-1" vertex="1">
                    <mxGeometry x="780" y="440" width="20" height="20" as="geometry"/>
                </mxCell>
                <mxCell id="5bpesTeWsDyr1P12P_9p-36" value="" style="ellipse;whiteSpace=wrap;html=1;aspect=fixed;" parent="7a89-ohbQVopVEbhS7QO-1" vertex="1">
                    <mxGeometry x="660" y="480" width="20" height="20" as="geometry"/>
                </mxCell>
                <mxCell id="5bpesTeWsDyr1P12P_9p-37" value="" style="ellipse;whiteSpace=wrap;html=1;aspect=fixed;" parent="7a89-ohbQVopVEbhS7QO-1" vertex="1">
                    <mxGeometry x="700" y="480" width="20" height="20" as="geometry"/>
                </mxCell>
                <mxCell id="5bpesTeWsDyr1P12P_9p-38" value="" style="ellipse;whiteSpace=wrap;html=1;aspect=fixed;" parent="7a89-ohbQVopVEbhS7QO-1" vertex="1">
                    <mxGeometry x="740" y="480" width="20" height="20" as="geometry"/>
                </mxCell>
                <mxCell id="5bpesTeWsDyr1P12P_9p-39" value="" style="ellipse;whiteSpace=wrap;html=1;aspect=fixed;" parent="7a89-ohbQVopVEbhS7QO-1" vertex="1">
                    <mxGeometry x="780" y="480" width="20" height="20" as="geometry"/>
                </mxCell>
                <mxCell id="5bpesTeWsDyr1P12P_9p-40" value="A" style="rounded=0;whiteSpace=wrap;html=1;fillColor=none;" parent="7a89-ohbQVopVEbhS7QO-1" vertex="1">
                    <mxGeometry x="650" y="440" width="80" height="20" as="geometry"/>
                </mxCell>
                <mxCell id="5bpesTeWsDyr1P12P_9p-41" value="B" style="rounded=0;whiteSpace=wrap;html=1;fillColor=none;" parent="7a89-ohbQVopVEbhS7QO-1" vertex="1">
                    <mxGeometry x="730" y="440" width="120" height="20" as="geometry"/>
                </mxCell>
                <mxCell id="5bpesTeWsDyr1P12P_9p-42" value="C" style="rounded=0;whiteSpace=wrap;html=1;fillColor=none;" parent="7a89-ohbQVopVEbhS7QO-1" vertex="1">
                    <mxGeometry x="650" y="480" width="80" height="20" as="geometry"/>
                </mxCell>
                <mxCell id="5bpesTeWsDyr1P12P_9p-43" value="D" style="rounded=0;whiteSpace=wrap;html=1;fillColor=none;" parent="7a89-ohbQVopVEbhS7QO-1" vertex="1">
                    <mxGeometry x="730" y="480" width="120" height="20" as="geometry"/>
                </mxCell>
                <mxCell id="5bpesTeWsDyr1P12P_9p-44" value="" style="ellipse;whiteSpace=wrap;html=1;aspect=fixed;" parent="7a89-ohbQVopVEbhS7QO-1" vertex="1">
                    <mxGeometry x="820" y="480" width="20" height="20" as="geometry"/>
                </mxCell>
                <mxCell id="5bpesTeWsDyr1P12P_9p-45" value="" style="ellipse;whiteSpace=wrap;html=1;aspect=fixed;" parent="7a89-ohbQVopVEbhS7QO-1" vertex="1">
                    <mxGeometry x="820" y="440" width="20" height="20" as="geometry"/>
                </mxCell>
                <mxCell id="5bpesTeWsDyr1P12P_9p-46" value="" style="ellipse;whiteSpace=wrap;html=1;aspect=fixed;" parent="7a89-ohbQVopVEbhS7QO-1" vertex="1">
                    <mxGeometry x="820" y="540" width="20" height="20" as="geometry"/>
                </mxCell>
                <mxCell id="5bpesTeWsDyr1P12P_9p-47" value="" style="ellipse;whiteSpace=wrap;html=1;aspect=fixed;" parent="7a89-ohbQVopVEbhS7QO-1" vertex="1">
                    <mxGeometry x="780" y="580" width="20" height="20" as="geometry"/>
                </mxCell>
                <mxCell id="5bpesTeWsDyr1P12P_9p-48" value="" style="ellipse;whiteSpace=wrap;html=1;aspect=fixed;" parent="7a89-ohbQVopVEbhS7QO-1" vertex="1">
                    <mxGeometry x="740" y="620" width="20" height="20" as="geometry"/>
                </mxCell>
                <mxCell id="5bpesTeWsDyr1P12P_9p-49" value="" style="ellipse;whiteSpace=wrap;html=1;aspect=fixed;" parent="7a89-ohbQVopVEbhS7QO-1" vertex="1">
                    <mxGeometry x="700" y="660" width="20" height="20" as="geometry"/>
                </mxCell>
                <mxCell id="5bpesTeWsDyr1P12P_9p-50" value="" style="ellipse;whiteSpace=wrap;html=1;aspect=fixed;" parent="7a89-ohbQVopVEbhS7QO-1" vertex="1">
                    <mxGeometry x="500" y="700" width="20" height="20" as="geometry"/>
                </mxCell>
                <mxCell id="5bpesTeWsDyr1P12P_9p-51" value="" style="ellipse;whiteSpace=wrap;html=1;aspect=fixed;" parent="7a89-ohbQVopVEbhS7QO-1" vertex="1">
                    <mxGeometry x="540" y="700" width="20" height="20" as="geometry"/>
                </mxCell>
                <mxCell id="5bpesTeWsDyr1P12P_9p-52" value="" style="ellipse;whiteSpace=wrap;html=1;aspect=fixed;" parent="7a89-ohbQVopVEbhS7QO-1" vertex="1">
                    <mxGeometry x="580" y="700" width="20" height="20" as="geometry"/>
                </mxCell>
                <mxCell id="5bpesTeWsDyr1P12P_9p-53" value="" style="ellipse;whiteSpace=wrap;html=1;aspect=fixed;" parent="7a89-ohbQVopVEbhS7QO-1" vertex="1">
                    <mxGeometry x="620" y="700" width="20" height="20" as="geometry"/>
                </mxCell>
                <mxCell id="5bpesTeWsDyr1P12P_9p-54" value="" style="ellipse;whiteSpace=wrap;html=1;aspect=fixed;" parent="7a89-ohbQVopVEbhS7QO-1" vertex="1">
                    <mxGeometry x="660" y="700" width="20" height="20" as="geometry"/>
                </mxCell>
                <mxCell id="5bpesTeWsDyr1P12P_9p-55" value="" style="ellipse;whiteSpace=wrap;html=1;aspect=fixed;" parent="7a89-ohbQVopVEbhS7QO-1" vertex="1">
                    <mxGeometry x="820" y="760" width="20" height="20" as="geometry"/>
                </mxCell>
                <mxCell id="5bpesTeWsDyr1P12P_9p-56" value="" style="ellipse;whiteSpace=wrap;html=1;aspect=fixed;" parent="7a89-ohbQVopVEbhS7QO-1" vertex="1">
                    <mxGeometry x="460" y="760" width="20" height="20" as="geometry"/>
                </mxCell>
                <mxCell id="5bpesTeWsDyr1P12P_9p-57" value="" style="endArrow=none;dashed=1;html=1;dashPattern=1 3;strokeWidth=2;exitX=0;exitY=0;exitDx=0;exitDy=0;" parent="7a89-ohbQVopVEbhS7QO-1" source="5bpesTeWsDyr1P12P_9p-40" edge="1">
                    <mxGeometry width="50" height="50" relative="1" as="geometry">
                        <mxPoint x="640" y="440" as="sourcePoint"/>
                        <mxPoint x="650" y="800" as="targetPoint"/>
                    </mxGeometry>
                </mxCell>
                <mxCell id="amt9p0-t3zd9v9tzKftU-0" value="for low-bits situation, low part &amp;gt;= high part" style="text;html=1;align=center;verticalAlign=middle;resizable=0;points=[];autosize=1;strokeColor=none;fillColor=none;" parent="7a89-ohbQVopVEbhS7QO-1" vertex="1">
                    <mxGeometry x="80" y="410" width="240" height="20" as="geometry"/>
                </mxCell>
            </root>
        </mxGraphModel>
    </diagram>
    <diagram id="NHi8RAfgth5EwD6GP3cX" name="decomposition">
        <mxGraphModel dx="1706" dy="1131" grid="1" gridSize="10" guides="1" tooltips="1" connect="1" arrows="1" fold="1" page="1" pageScale="1" pageWidth="827" pageHeight="1169" math="0" shadow="0">
            <root>
                <mxCell id="ZiDQZLkoUPAjUmdjGdND-0"/>
                <mxCell id="ZiDQZLkoUPAjUmdjGdND-1" parent="ZiDQZLkoUPAjUmdjGdND-0"/>
                <mxCell id="ZiDQZLkoUPAjUmdjGdND-6" style="rounded=0;html=1;exitX=0.5;exitY=1;exitDx=0;exitDy=0;entryX=1;entryY=0;entryDx=0;entryDy=0;fillColor=#dae8fc;strokeColor=#6c8ebf;" parent="ZiDQZLkoUPAjUmdjGdND-1" source="ZiDQZLkoUPAjUmdjGdND-2" target="ZiDQZLkoUPAjUmdjGdND-3" edge="1">
                    <mxGeometry relative="1" as="geometry"/>
                </mxCell>
                <mxCell id="ZiDQZLkoUPAjUmdjGdND-7" style="edgeStyle=none;rounded=0;html=1;exitX=0.5;exitY=1;exitDx=0;exitDy=0;entryX=0.5;entryY=0;entryDx=0;entryDy=0;fillColor=#dae8fc;strokeColor=#6c8ebf;" parent="ZiDQZLkoUPAjUmdjGdND-1" source="ZiDQZLkoUPAjUmdjGdND-2" target="ZiDQZLkoUPAjUmdjGdND-4" edge="1">
                    <mxGeometry relative="1" as="geometry"/>
                </mxCell>
                <mxCell id="ZiDQZLkoUPAjUmdjGdND-8" style="edgeStyle=none;rounded=0;html=1;exitX=0.5;exitY=1;exitDx=0;exitDy=0;entryX=0;entryY=0;entryDx=0;entryDy=0;fillColor=#dae8fc;strokeColor=#6c8ebf;" parent="ZiDQZLkoUPAjUmdjGdND-1" source="ZiDQZLkoUPAjUmdjGdND-2" target="ZiDQZLkoUPAjUmdjGdND-5" edge="1">
                    <mxGeometry relative="1" as="geometry"/>
                </mxCell>
                <mxCell id="ZiDQZLkoUPAjUmdjGdND-2" value="96" style="ellipse;whiteSpace=wrap;html=1;aspect=fixed;fillColor=#ffe6cc;strokeColor=#d79b00;" parent="ZiDQZLkoUPAjUmdjGdND-1" vertex="1">
                    <mxGeometry x="160" y="80" width="40" height="40" as="geometry"/>
                </mxCell>
                <mxCell id="ZiDQZLkoUPAjUmdjGdND-10" style="edgeStyle=none;rounded=0;html=1;exitX=0.5;exitY=1;exitDx=0;exitDy=0;entryX=0.5;entryY=0;entryDx=0;entryDy=0;fillColor=#dae8fc;strokeColor=#6c8ebf;" parent="ZiDQZLkoUPAjUmdjGdND-1" source="ZiDQZLkoUPAjUmdjGdND-3" target="ZiDQZLkoUPAjUmdjGdND-9" edge="1">
                    <mxGeometry relative="1" as="geometry"/>
                </mxCell>
                <mxCell id="ZiDQZLkoUPAjUmdjGdND-19" style="edgeStyle=none;rounded=0;html=1;exitX=0.5;exitY=1;exitDx=0;exitDy=0;entryX=0.5;entryY=0;entryDx=0;entryDy=0;fillColor=#dae8fc;strokeColor=#6c8ebf;" parent="ZiDQZLkoUPAjUmdjGdND-1" source="ZiDQZLkoUPAjUmdjGdND-3" target="ZiDQZLkoUPAjUmdjGdND-11" edge="1">
                    <mxGeometry relative="1" as="geometry"/>
                </mxCell>
                <mxCell id="ZiDQZLkoUPAjUmdjGdND-20" style="edgeStyle=none;rounded=0;html=1;exitX=0.5;exitY=1;exitDx=0;exitDy=0;entryX=0.5;entryY=0;entryDx=0;entryDy=0;fillColor=#dae8fc;strokeColor=#6c8ebf;" parent="ZiDQZLkoUPAjUmdjGdND-1" source="ZiDQZLkoUPAjUmdjGdND-3" target="ZiDQZLkoUPAjUmdjGdND-12" edge="1">
                    <mxGeometry relative="1" as="geometry"/>
                </mxCell>
                <mxCell id="ZiDQZLkoUPAjUmdjGdND-3" value="48" style="ellipse;whiteSpace=wrap;html=1;aspect=fixed;fillColor=#ffe6cc;strokeColor=#d79b00;" parent="ZiDQZLkoUPAjUmdjGdND-1" vertex="1">
                    <mxGeometry x="80" y="160" width="40" height="40" as="geometry"/>
                </mxCell>
                <mxCell id="ZiDQZLkoUPAjUmdjGdND-22" style="edgeStyle=none;rounded=0;html=1;exitX=0.5;exitY=1;exitDx=0;exitDy=0;entryX=0.5;entryY=0;entryDx=0;entryDy=0;fillColor=#dae8fc;strokeColor=#6c8ebf;" parent="ZiDQZLkoUPAjUmdjGdND-1" source="ZiDQZLkoUPAjUmdjGdND-4" target="ZiDQZLkoUPAjUmdjGdND-13" edge="1">
                    <mxGeometry relative="1" as="geometry"/>
                </mxCell>
                <mxCell id="ZiDQZLkoUPAjUmdjGdND-23" style="edgeStyle=none;rounded=0;html=1;exitX=0.5;exitY=1;exitDx=0;exitDy=0;entryX=0.5;entryY=0;entryDx=0;entryDy=0;fillColor=#dae8fc;strokeColor=#6c8ebf;" parent="ZiDQZLkoUPAjUmdjGdND-1" source="ZiDQZLkoUPAjUmdjGdND-4" target="ZiDQZLkoUPAjUmdjGdND-14" edge="1">
                    <mxGeometry relative="1" as="geometry"/>
                </mxCell>
                <mxCell id="ZiDQZLkoUPAjUmdjGdND-24" style="edgeStyle=none;rounded=0;html=1;exitX=0.5;exitY=1;exitDx=0;exitDy=0;entryX=0.5;entryY=0;entryDx=0;entryDy=0;fillColor=#dae8fc;strokeColor=#6c8ebf;" parent="ZiDQZLkoUPAjUmdjGdND-1" source="ZiDQZLkoUPAjUmdjGdND-4" target="ZiDQZLkoUPAjUmdjGdND-15" edge="1">
                    <mxGeometry relative="1" as="geometry"/>
                </mxCell>
                <mxCell id="ZiDQZLkoUPAjUmdjGdND-4" value="49" style="ellipse;whiteSpace=wrap;html=1;aspect=fixed;fillColor=#ffe6cc;strokeColor=#d79b00;" parent="ZiDQZLkoUPAjUmdjGdND-1" vertex="1">
                    <mxGeometry x="160" y="160" width="40" height="40" as="geometry"/>
                </mxCell>
                <mxCell id="ZiDQZLkoUPAjUmdjGdND-25" style="edgeStyle=none;rounded=0;html=1;exitX=0.5;exitY=1;exitDx=0;exitDy=0;entryX=0.5;entryY=0;entryDx=0;entryDy=0;fillColor=#dae8fc;strokeColor=#6c8ebf;" parent="ZiDQZLkoUPAjUmdjGdND-1" source="ZiDQZLkoUPAjUmdjGdND-5" target="ZiDQZLkoUPAjUmdjGdND-16" edge="1">
                    <mxGeometry relative="1" as="geometry"/>
                </mxCell>
                <mxCell id="ZiDQZLkoUPAjUmdjGdND-26" style="edgeStyle=none;rounded=0;html=1;exitX=0.5;exitY=1;exitDx=0;exitDy=0;entryX=0.5;entryY=0;entryDx=0;entryDy=0;fillColor=#dae8fc;strokeColor=#6c8ebf;" parent="ZiDQZLkoUPAjUmdjGdND-1" source="ZiDQZLkoUPAjUmdjGdND-5" target="ZiDQZLkoUPAjUmdjGdND-17" edge="1">
                    <mxGeometry relative="1" as="geometry"/>
                </mxCell>
                <mxCell id="ZiDQZLkoUPAjUmdjGdND-27" style="edgeStyle=none;rounded=0;html=1;exitX=0.5;exitY=1;exitDx=0;exitDy=0;entryX=0.5;entryY=0;entryDx=0;entryDy=0;fillColor=#dae8fc;strokeColor=#6c8ebf;" parent="ZiDQZLkoUPAjUmdjGdND-1" source="ZiDQZLkoUPAjUmdjGdND-5" target="ZiDQZLkoUPAjUmdjGdND-18" edge="1">
                    <mxGeometry relative="1" as="geometry"/>
                </mxCell>
                <mxCell id="ZiDQZLkoUPAjUmdjGdND-5" value="48" style="ellipse;whiteSpace=wrap;html=1;aspect=fixed;fillColor=#ffe6cc;strokeColor=#d79b00;" parent="ZiDQZLkoUPAjUmdjGdND-1" vertex="1">
                    <mxGeometry x="240" y="160" width="40" height="40" as="geometry"/>
                </mxCell>
                <mxCell id="ZiDQZLkoUPAjUmdjGdND-9" value="24" style="ellipse;whiteSpace=wrap;html=1;aspect=fixed;fillColor=#ffe6cc;strokeColor=#d79b00;" parent="ZiDQZLkoUPAjUmdjGdND-1" vertex="1">
                    <mxGeometry y="240" width="40" height="40" as="geometry"/>
                </mxCell>
                <mxCell id="ZiDQZLkoUPAjUmdjGdND-11" value="25" style="ellipse;whiteSpace=wrap;html=1;aspect=fixed;fillColor=#ffe6cc;strokeColor=#d79b00;" parent="ZiDQZLkoUPAjUmdjGdND-1" vertex="1">
                    <mxGeometry x="40" y="240" width="40" height="40" as="geometry"/>
                </mxCell>
                <mxCell id="ZiDQZLkoUPAjUmdjGdND-12" value="24" style="ellipse;whiteSpace=wrap;html=1;aspect=fixed;fillColor=#ffe6cc;strokeColor=#d79b00;" parent="ZiDQZLkoUPAjUmdjGdND-1" vertex="1">
                    <mxGeometry x="80" y="240" width="40" height="40" as="geometry"/>
                </mxCell>
                <mxCell id="ZiDQZLkoUPAjUmdjGdND-13" value="24" style="ellipse;whiteSpace=wrap;html=1;aspect=fixed;fillColor=#ffe6cc;strokeColor=#d79b00;" parent="ZiDQZLkoUPAjUmdjGdND-1" vertex="1">
                    <mxGeometry x="120" y="240" width="40" height="40" as="geometry"/>
                </mxCell>
                <mxCell id="ZiDQZLkoUPAjUmdjGdND-21" style="edgeStyle=none;rounded=0;html=1;exitX=0;exitY=0.5;exitDx=0;exitDy=0;entryX=1;entryY=0.5;entryDx=0;entryDy=0;fillColor=#ffe6cc;strokeColor=#d79b00;" parent="ZiDQZLkoUPAjUmdjGdND-1" source="ZiDQZLkoUPAjUmdjGdND-14" target="ZiDQZLkoUPAjUmdjGdND-13" edge="1">
                    <mxGeometry relative="1" as="geometry"/>
                </mxCell>
                <mxCell id="ZiDQZLkoUPAjUmdjGdND-14" value="26" style="ellipse;whiteSpace=wrap;html=1;aspect=fixed;fillColor=#ffe6cc;strokeColor=#d79b00;" parent="ZiDQZLkoUPAjUmdjGdND-1" vertex="1">
                    <mxGeometry x="160" y="240" width="40" height="40" as="geometry"/>
                </mxCell>
                <mxCell id="ZiDQZLkoUPAjUmdjGdND-15" value="25" style="ellipse;whiteSpace=wrap;html=1;aspect=fixed;fillColor=#ffe6cc;strokeColor=#d79b00;" parent="ZiDQZLkoUPAjUmdjGdND-1" vertex="1">
                    <mxGeometry x="200" y="240" width="40" height="40" as="geometry"/>
                </mxCell>
                <mxCell id="ZiDQZLkoUPAjUmdjGdND-16" value="24" style="ellipse;whiteSpace=wrap;html=1;aspect=fixed;fillColor=#ffe6cc;strokeColor=#d79b00;" parent="ZiDQZLkoUPAjUmdjGdND-1" vertex="1">
                    <mxGeometry x="240" y="240" width="40" height="40" as="geometry"/>
                </mxCell>
                <mxCell id="ZiDQZLkoUPAjUmdjGdND-17" value="25" style="ellipse;whiteSpace=wrap;html=1;aspect=fixed;fillColor=#ffe6cc;strokeColor=#d79b00;" parent="ZiDQZLkoUPAjUmdjGdND-1" vertex="1">
                    <mxGeometry x="280" y="240" width="40" height="40" as="geometry"/>
                </mxCell>
                <mxCell id="ZiDQZLkoUPAjUmdjGdND-18" value="24" style="ellipse;whiteSpace=wrap;html=1;aspect=fixed;fillColor=#ffe6cc;strokeColor=#d79b00;" parent="ZiDQZLkoUPAjUmdjGdND-1" vertex="1">
                    <mxGeometry x="320" y="240" width="40" height="40" as="geometry"/>
                </mxCell>
                <mxCell id="_lA87hX_iFHeraySmmLP-0" style="rounded=0;html=1;exitX=0.5;exitY=1;exitDx=0;exitDy=0;entryX=0.5;entryY=0;entryDx=0;entryDy=0;fillColor=#ffe6cc;strokeColor=#d79b00;" parent="ZiDQZLkoUPAjUmdjGdND-1" source="_lA87hX_iFHeraySmmLP-3" target="_lA87hX_iFHeraySmmLP-7" edge="1">
                    <mxGeometry relative="1" as="geometry"/>
                </mxCell>
                <mxCell id="_lA87hX_iFHeraySmmLP-1" style="edgeStyle=none;rounded=0;html=1;exitX=0.5;exitY=1;exitDx=0;exitDy=0;fillColor=#ffe6cc;strokeColor=#d79b00;entryX=1;entryY=0;entryDx=0;entryDy=0;" parent="ZiDQZLkoUPAjUmdjGdND-1" source="_lA87hX_iFHeraySmmLP-3" target="_lA87hX_iFHeraySmmLP-42" edge="1">
                    <mxGeometry relative="1" as="geometry">
                        <mxPoint x="620" y="160" as="targetPoint"/>
                    </mxGeometry>
                </mxCell>
                <mxCell id="_lA87hX_iFHeraySmmLP-2" style="edgeStyle=none;rounded=0;html=1;exitX=0.5;exitY=1;exitDx=0;exitDy=0;entryX=0;entryY=0;entryDx=0;entryDy=0;fillColor=#ffe6cc;strokeColor=#d79b00;" parent="ZiDQZLkoUPAjUmdjGdND-1" source="_lA87hX_iFHeraySmmLP-3" target="_lA87hX_iFHeraySmmLP-15" edge="1">
                    <mxGeometry relative="1" as="geometry"/>
                </mxCell>
                <mxCell id="_lA87hX_iFHeraySmmLP-3" value="96" style="ellipse;whiteSpace=wrap;html=1;aspect=fixed;fillColor=#ffe6cc;strokeColor=#d79b00;" parent="ZiDQZLkoUPAjUmdjGdND-1" vertex="1">
                    <mxGeometry x="600" y="80" width="40" height="40" as="geometry"/>
                </mxCell>
                <mxCell id="_lA87hX_iFHeraySmmLP-4" style="edgeStyle=none;rounded=0;html=1;exitX=0.5;exitY=1;exitDx=0;exitDy=0;entryX=0.5;entryY=0;entryDx=0;entryDy=0;fillColor=#ffe6cc;strokeColor=#d79b00;" parent="ZiDQZLkoUPAjUmdjGdND-1" source="_lA87hX_iFHeraySmmLP-7" target="_lA87hX_iFHeraySmmLP-17" edge="1">
                    <mxGeometry relative="1" as="geometry"/>
                </mxCell>
                <mxCell id="_lA87hX_iFHeraySmmLP-5" style="edgeStyle=none;rounded=0;html=1;exitX=0.5;exitY=1;exitDx=0;exitDy=0;entryX=0.5;entryY=0;entryDx=0;entryDy=0;fillColor=#ffe6cc;strokeColor=#d79b00;" parent="ZiDQZLkoUPAjUmdjGdND-1" source="_lA87hX_iFHeraySmmLP-7" target="_lA87hX_iFHeraySmmLP-19" edge="1">
                    <mxGeometry relative="1" as="geometry"/>
                </mxCell>
                <mxCell id="_lA87hX_iFHeraySmmLP-6" style="edgeStyle=none;rounded=0;html=1;exitX=0.5;exitY=1;exitDx=0;exitDy=0;entryX=0.5;entryY=0;entryDx=0;entryDy=0;fillColor=#ffe6cc;strokeColor=#d79b00;" parent="ZiDQZLkoUPAjUmdjGdND-1" source="_lA87hX_iFHeraySmmLP-7" target="_lA87hX_iFHeraySmmLP-21" edge="1">
                    <mxGeometry relative="1" as="geometry"/>
                </mxCell>
                <mxCell id="_lA87hX_iFHeraySmmLP-7" value="64" style="ellipse;whiteSpace=wrap;html=1;aspect=fixed;fillColor=#ffe6cc;strokeColor=#d79b00;" parent="ZiDQZLkoUPAjUmdjGdND-1" vertex="1">
                    <mxGeometry x="600" y="160" width="40" height="40" as="geometry"/>
                </mxCell>
                <mxCell id="_lA87hX_iFHeraySmmLP-12" style="edgeStyle=none;rounded=0;html=1;exitX=0.5;exitY=1;exitDx=0;exitDy=0;entryX=0.5;entryY=0;entryDx=0;entryDy=0;fillColor=#ffe6cc;strokeColor=#d79b00;" parent="ZiDQZLkoUPAjUmdjGdND-1" source="_lA87hX_iFHeraySmmLP-15" target="_lA87hX_iFHeraySmmLP-30" edge="1">
                    <mxGeometry relative="1" as="geometry"/>
                </mxCell>
                <mxCell id="_lA87hX_iFHeraySmmLP-13" style="edgeStyle=none;rounded=0;html=1;exitX=0.5;exitY=1;exitDx=0;exitDy=0;entryX=0.5;entryY=0;entryDx=0;entryDy=0;fillColor=#ffe6cc;strokeColor=#d79b00;" parent="ZiDQZLkoUPAjUmdjGdND-1" source="_lA87hX_iFHeraySmmLP-15" target="_lA87hX_iFHeraySmmLP-32" edge="1">
                    <mxGeometry relative="1" as="geometry"/>
                </mxCell>
                <mxCell id="_lA87hX_iFHeraySmmLP-14" style="edgeStyle=none;rounded=0;html=1;exitX=0.5;exitY=1;exitDx=0;exitDy=0;entryX=0.5;entryY=0;entryDx=0;entryDy=0;fillColor=#ffe6cc;strokeColor=#d79b00;" parent="ZiDQZLkoUPAjUmdjGdND-1" source="_lA87hX_iFHeraySmmLP-15" target="_lA87hX_iFHeraySmmLP-34" edge="1">
                    <mxGeometry relative="1" as="geometry"/>
                </mxCell>
                <mxCell id="_lA87hX_iFHeraySmmLP-15" value="64" style="ellipse;whiteSpace=wrap;html=1;aspect=fixed;fillColor=#ffe6cc;strokeColor=#d79b00;" parent="ZiDQZLkoUPAjUmdjGdND-1" vertex="1">
                    <mxGeometry x="680" y="160" width="40" height="40" as="geometry"/>
                </mxCell>
                <mxCell id="_lA87hX_iFHeraySmmLP-17" value="32" style="ellipse;whiteSpace=wrap;html=1;aspect=fixed;fillColor=#ffe6cc;strokeColor=#d79b00;" parent="ZiDQZLkoUPAjUmdjGdND-1" vertex="1">
                    <mxGeometry x="560" y="240" width="40" height="40" as="geometry"/>
                </mxCell>
                <mxCell id="_lA87hX_iFHeraySmmLP-19" value="32" style="ellipse;whiteSpace=wrap;html=1;aspect=fixed;fillColor=#ffe6cc;strokeColor=#d79b00;" parent="ZiDQZLkoUPAjUmdjGdND-1" vertex="1">
                    <mxGeometry x="600" y="240" width="40" height="40" as="geometry"/>
                </mxCell>
                <mxCell id="_lA87hX_iFHeraySmmLP-21" value="32" style="ellipse;whiteSpace=wrap;html=1;aspect=fixed;fillColor=#ffe6cc;strokeColor=#d79b00;" parent="ZiDQZLkoUPAjUmdjGdND-1" vertex="1">
                    <mxGeometry x="640" y="240" width="40" height="40" as="geometry"/>
                </mxCell>
                <mxCell id="_lA87hX_iFHeraySmmLP-30" value="32" style="ellipse;whiteSpace=wrap;html=1;aspect=fixed;fillColor=#ffe6cc;strokeColor=#d79b00;" parent="ZiDQZLkoUPAjUmdjGdND-1" vertex="1">
                    <mxGeometry x="680" y="240" width="40" height="40" as="geometry"/>
                </mxCell>
                <mxCell id="_lA87hX_iFHeraySmmLP-32" value="32" style="ellipse;whiteSpace=wrap;html=1;aspect=fixed;fillColor=#ffe6cc;strokeColor=#d79b00;" parent="ZiDQZLkoUPAjUmdjGdND-1" vertex="1">
                    <mxGeometry x="720" y="240" width="40" height="40" as="geometry"/>
                </mxCell>
                <mxCell id="_lA87hX_iFHeraySmmLP-34" value="32" style="ellipse;whiteSpace=wrap;html=1;aspect=fixed;fillColor=#ffe6cc;strokeColor=#d79b00;" parent="ZiDQZLkoUPAjUmdjGdND-1" vertex="1">
                    <mxGeometry x="760" y="240" width="40" height="40" as="geometry"/>
                </mxCell>
                <mxCell id="_lA87hX_iFHeraySmmLP-42" value="32" style="ellipse;whiteSpace=wrap;html=1;aspect=fixed;fillColor=#ffe6cc;strokeColor=#d79b00;" parent="ZiDQZLkoUPAjUmdjGdND-1" vertex="1">
                    <mxGeometry x="480" y="240" width="40" height="40" as="geometry"/>
                </mxCell>
                <mxCell id="nxXjXHIkzFQ-UIaITMaP-0" value="divide by 2" style="text;html=1;align=center;verticalAlign=middle;resizable=0;points=[];autosize=1;strokeColor=none;fillColor=none;" parent="ZiDQZLkoUPAjUmdjGdND-1" vertex="1">
                    <mxGeometry x="145" y="300" width="70" height="20" as="geometry"/>
                </mxCell>
                <mxCell id="nxXjXHIkzFQ-UIaITMaP-1" value="according to steps" style="text;html=1;align=center;verticalAlign=middle;resizable=0;points=[];autosize=1;strokeColor=none;fillColor=none;" parent="ZiDQZLkoUPAjUmdjGdND-1" vertex="1">
                    <mxGeometry x="565" y="300" width="110" height="20" as="geometry"/>
                </mxCell>
            </root>
        </mxGraphModel>
    </diagram>
    <diagram id="bm0gu6_4dcUjcB4lVp3b" name="3-Stage Kara">
        <mxGraphModel dx="1422" dy="943" grid="1" gridSize="10" guides="1" tooltips="1" connect="1" arrows="1" fold="1" page="1" pageScale="1" pageWidth="827" pageHeight="1169" math="0" shadow="0">
            <root>
                <mxCell id="y-arYMla7s28pJlOuvkU-0"/>
                <mxCell id="y-arYMla7s28pJlOuvkU-1" parent="y-arYMla7s28pJlOuvkU-0"/>
                <mxCell id="y-arYMla7s28pJlOuvkU-2" style="edgeStyle=none;html=1;exitX=0.5;exitY=1;exitDx=0;exitDy=0;entryX=0.5;entryY=0;entryDx=0;entryDy=0;endArrow=classic;endFill=1;" parent="y-arYMla7s28pJlOuvkU-1" source="y-arYMla7s28pJlOuvkU-3" target="y-arYMla7s28pJlOuvkU-8" edge="1">
                    <mxGeometry relative="1" as="geometry"/>
                </mxCell>
                <mxCell id="y-arYMla7s28pJlOuvkU-3" value="" style="ellipse;whiteSpace=wrap;html=1;aspect=fixed;fillColor=#dae8fc;strokeColor=#6c8ebf;" parent="y-arYMla7s28pJlOuvkU-1" vertex="1">
                    <mxGeometry x="205" y="160" width="40" height="40" as="geometry"/>
                </mxCell>
                <mxCell id="y-arYMla7s28pJlOuvkU-4" style="edgeStyle=none;html=1;exitX=0;exitY=1;exitDx=0;exitDy=0;entryX=0.5;entryY=0;entryDx=0;entryDy=0;endArrow=classic;endFill=1;" parent="y-arYMla7s28pJlOuvkU-1" source="y-arYMla7s28pJlOuvkU-8" target="y-arYMla7s28pJlOuvkU-11" edge="1">
                    <mxGeometry relative="1" as="geometry"/>
                </mxCell>
                <mxCell id="y-arYMla7s28pJlOuvkU-5" style="edgeStyle=none;html=1;exitX=1;exitY=1;exitDx=0;exitDy=0;endArrow=classic;endFill=1;rounded=0;" parent="y-arYMla7s28pJlOuvkU-1" source="y-arYMla7s28pJlOuvkU-8" edge="1">
                    <mxGeometry relative="1" as="geometry">
                        <mxPoint x="225" y="320" as="targetPoint"/>
                    </mxGeometry>
                </mxCell>
                <mxCell id="y-arYMla7s28pJlOuvkU-6" style="edgeStyle=none;html=1;exitX=0;exitY=1;exitDx=0;exitDy=0;entryX=0.5;entryY=0;entryDx=0;entryDy=0;endArrow=classic;endFill=1;" parent="y-arYMla7s28pJlOuvkU-1" source="y-arYMla7s28pJlOuvkU-8" target="y-arYMla7s28pJlOuvkU-14" edge="1">
                    <mxGeometry relative="1" as="geometry"/>
                </mxCell>
                <mxCell id="y-arYMla7s28pJlOuvkU-7" style="edgeStyle=none;rounded=0;html=1;exitX=1;exitY=1;exitDx=0;exitDy=0;entryX=0.5;entryY=0;entryDx=0;entryDy=0;endArrow=classic;endFill=1;" parent="y-arYMla7s28pJlOuvkU-1" source="y-arYMla7s28pJlOuvkU-8" target="y-arYMla7s28pJlOuvkU-33" edge="1">
                    <mxGeometry relative="1" as="geometry"/>
                </mxCell>
                <mxCell id="y-arYMla7s28pJlOuvkU-8" value="" style="ellipse;whiteSpace=wrap;html=1;aspect=fixed;fillColor=#fff2cc;strokeColor=#d6b656;" parent="y-arYMla7s28pJlOuvkU-1" vertex="1">
                    <mxGeometry x="205" y="240" width="40" height="40" as="geometry"/>
                </mxCell>
                <mxCell id="y-arYMla7s28pJlOuvkU-9" style="edgeStyle=none;rounded=0;html=1;exitX=0.5;exitY=1;exitDx=0;exitDy=0;entryX=0.5;entryY=0;entryDx=0;entryDy=0;endArrow=classic;endFill=1;" parent="y-arYMla7s28pJlOuvkU-1" source="y-arYMla7s28pJlOuvkU-11" target="y-arYMla7s28pJlOuvkU-20" edge="1">
                    <mxGeometry relative="1" as="geometry"/>
                </mxCell>
                <mxCell id="y-arYMla7s28pJlOuvkU-10" style="html=1;exitX=0.5;exitY=1;exitDx=0;exitDy=0;entryX=0.5;entryY=0;entryDx=0;entryDy=0;endArrow=classic;endFill=1;rounded=0;" parent="y-arYMla7s28pJlOuvkU-1" source="y-arYMla7s28pJlOuvkU-11" target="y-arYMla7s28pJlOuvkU-16" edge="1">
                    <mxGeometry relative="1" as="geometry"/>
                </mxCell>
                <mxCell id="y-arYMla7s28pJlOuvkU-11" value="" style="ellipse;whiteSpace=wrap;html=1;aspect=fixed;fillColor=#d5e8d4;strokeColor=#82b366;" parent="y-arYMla7s28pJlOuvkU-1" vertex="1">
                    <mxGeometry x="205" y="320" width="40" height="40" as="geometry"/>
                </mxCell>
                <mxCell id="y-arYMla7s28pJlOuvkU-12" value="sub" style="edgeStyle=none;rounded=0;html=1;exitX=0.5;exitY=1;exitDx=0;exitDy=0;entryX=0.5;entryY=0;entryDx=0;entryDy=0;endArrow=classic;endFill=1;fillColor=#f8cecc;strokeColor=#b85450;" parent="y-arYMla7s28pJlOuvkU-1" source="y-arYMla7s28pJlOuvkU-14" target="y-arYMla7s28pJlOuvkU-45" edge="1">
                    <mxGeometry relative="1" as="geometry"/>
                </mxCell>
                <mxCell id="y-arYMla7s28pJlOuvkU-13" style="edgeStyle=none;html=1;exitX=0.5;exitY=1;exitDx=0;exitDy=0;entryX=0;entryY=0;entryDx=0;entryDy=0;" parent="y-arYMla7s28pJlOuvkU-1" source="y-arYMla7s28pJlOuvkU-14" target="y-arYMla7s28pJlOuvkU-51" edge="1">
                    <mxGeometry relative="1" as="geometry"/>
                </mxCell>
                <mxCell id="y-arYMla7s28pJlOuvkU-14" value="" style="ellipse;whiteSpace=wrap;html=1;aspect=fixed;fillColor=#ffe6cc;strokeColor=#d79b00;" parent="y-arYMla7s28pJlOuvkU-1" vertex="1">
                    <mxGeometry x="125" y="480" width="40" height="40" as="geometry"/>
                </mxCell>
                <mxCell id="y-arYMla7s28pJlOuvkU-15" style="edgeStyle=none;rounded=0;html=1;exitX=0.5;exitY=1;exitDx=0;exitDy=0;endArrow=classic;endFill=1;" parent="y-arYMla7s28pJlOuvkU-1" source="y-arYMla7s28pJlOuvkU-16" edge="1">
                    <mxGeometry relative="1" as="geometry">
                        <mxPoint x="345" y="560" as="targetPoint"/>
                    </mxGeometry>
                </mxCell>
                <mxCell id="y-arYMla7s28pJlOuvkU-16" value="mux" style="ellipse;whiteSpace=wrap;html=1;aspect=fixed;fillColor=#f8cecc;strokeColor=#b85450;" parent="y-arYMla7s28pJlOuvkU-1" vertex="1">
                    <mxGeometry x="205" y="480" width="40" height="40" as="geometry"/>
                </mxCell>
                <mxCell id="y-arYMla7s28pJlOuvkU-17" style="edgeStyle=none;rounded=0;html=1;exitX=0;exitY=1;exitDx=0;exitDy=0;entryX=0.5;entryY=0;entryDx=0;entryDy=0;endArrow=classic;endFill=1;" parent="y-arYMla7s28pJlOuvkU-1" source="y-arYMla7s28pJlOuvkU-20" target="y-arYMla7s28pJlOuvkU-16" edge="1">
                    <mxGeometry relative="1" as="geometry"/>
                </mxCell>
                <mxCell id="y-arYMla7s28pJlOuvkU-18" style="edgeStyle=none;rounded=0;html=1;exitX=1;exitY=1;exitDx=0;exitDy=0;entryX=0.5;entryY=0;entryDx=0;entryDy=0;endArrow=classic;endFill=1;" parent="y-arYMla7s28pJlOuvkU-1" source="y-arYMla7s28pJlOuvkU-20" target="y-arYMla7s28pJlOuvkU-41" edge="1">
                    <mxGeometry relative="1" as="geometry"/>
                </mxCell>
                <mxCell id="y-arYMla7s28pJlOuvkU-19" style="edgeStyle=none;rounded=0;html=1;exitX=0;exitY=1;exitDx=0;exitDy=0;entryX=0.5;entryY=0;entryDx=0;entryDy=0;endArrow=classic;endFill=1;" parent="y-arYMla7s28pJlOuvkU-1" source="y-arYMla7s28pJlOuvkU-20" target="y-arYMla7s28pJlOuvkU-43" edge="1">
                    <mxGeometry relative="1" as="geometry"/>
                </mxCell>
                <mxCell id="y-arYMla7s28pJlOuvkU-20" value="" style="ellipse;whiteSpace=wrap;html=1;aspect=fixed;fillColor=#fff2cc;strokeColor=#d6b656;" parent="y-arYMla7s28pJlOuvkU-1" vertex="1">
                    <mxGeometry x="245" y="400" width="40" height="40" as="geometry"/>
                </mxCell>
                <mxCell id="y-arYMla7s28pJlOuvkU-21" style="edgeStyle=none;html=1;exitX=0.5;exitY=1;exitDx=0;exitDy=0;entryX=0.5;entryY=0;entryDx=0;entryDy=0;endArrow=classic;endFill=1;" parent="y-arYMla7s28pJlOuvkU-1" source="y-arYMla7s28pJlOuvkU-22" target="y-arYMla7s28pJlOuvkU-27" edge="1">
                    <mxGeometry relative="1" as="geometry"/>
                </mxCell>
                <mxCell id="y-arYMla7s28pJlOuvkU-22" value="" style="ellipse;whiteSpace=wrap;html=1;aspect=fixed;fillColor=#dae8fc;strokeColor=#6c8ebf;" parent="y-arYMla7s28pJlOuvkU-1" vertex="1">
                    <mxGeometry x="445" y="160" width="40" height="40" as="geometry"/>
                </mxCell>
                <mxCell id="y-arYMla7s28pJlOuvkU-23" style="edgeStyle=none;html=1;exitX=0;exitY=1;exitDx=0;exitDy=0;entryX=0.5;entryY=0;entryDx=0;entryDy=0;endArrow=classic;endFill=1;" parent="y-arYMla7s28pJlOuvkU-1" source="y-arYMla7s28pJlOuvkU-27" target="y-arYMla7s28pJlOuvkU-30" edge="1">
                    <mxGeometry relative="1" as="geometry"/>
                </mxCell>
                <mxCell id="y-arYMla7s28pJlOuvkU-24" style="edgeStyle=none;html=1;exitX=1;exitY=1;exitDx=0;exitDy=0;endArrow=classic;endFill=1;rounded=0;" parent="y-arYMla7s28pJlOuvkU-1" source="y-arYMla7s28pJlOuvkU-27" edge="1">
                    <mxGeometry relative="1" as="geometry">
                        <mxPoint x="465" y="320" as="targetPoint"/>
                    </mxGeometry>
                </mxCell>
                <mxCell id="y-arYMla7s28pJlOuvkU-25" style="edgeStyle=none;rounded=0;html=1;exitX=0;exitY=1;exitDx=0;exitDy=0;entryX=0.5;entryY=0;entryDx=0;entryDy=0;endArrow=classic;endFill=1;" parent="y-arYMla7s28pJlOuvkU-1" source="y-arYMla7s28pJlOuvkU-27" target="y-arYMla7s28pJlOuvkU-14" edge="1">
                    <mxGeometry relative="1" as="geometry"/>
                </mxCell>
                <mxCell id="y-arYMla7s28pJlOuvkU-26" style="edgeStyle=none;rounded=0;html=1;exitX=1;exitY=1;exitDx=0;exitDy=0;entryX=0.5;entryY=0;entryDx=0;entryDy=0;endArrow=classic;endFill=1;" parent="y-arYMla7s28pJlOuvkU-1" source="y-arYMla7s28pJlOuvkU-27" target="y-arYMla7s28pJlOuvkU-33" edge="1">
                    <mxGeometry relative="1" as="geometry"/>
                </mxCell>
                <mxCell id="y-arYMla7s28pJlOuvkU-27" value="" style="ellipse;whiteSpace=wrap;html=1;aspect=fixed;fillColor=#fff2cc;strokeColor=#d6b656;" parent="y-arYMla7s28pJlOuvkU-1" vertex="1">
                    <mxGeometry x="445" y="240" width="40" height="40" as="geometry"/>
                </mxCell>
                <mxCell id="y-arYMla7s28pJlOuvkU-28" style="edgeStyle=none;rounded=0;html=1;exitX=0.5;exitY=1;exitDx=0;exitDy=0;entryX=0.5;entryY=0;entryDx=0;entryDy=0;endArrow=classic;endFill=1;" parent="y-arYMla7s28pJlOuvkU-1" source="y-arYMla7s28pJlOuvkU-30" target="y-arYMla7s28pJlOuvkU-39" edge="1">
                    <mxGeometry relative="1" as="geometry"/>
                </mxCell>
                <mxCell id="y-arYMla7s28pJlOuvkU-29" style="html=1;exitX=0.5;exitY=1;exitDx=0;exitDy=0;entryX=0.5;entryY=0;entryDx=0;entryDy=0;endArrow=classic;endFill=1;rounded=0;" parent="y-arYMla7s28pJlOuvkU-1" source="y-arYMla7s28pJlOuvkU-30" target="y-arYMla7s28pJlOuvkU-35" edge="1">
                    <mxGeometry relative="1" as="geometry"/>
                </mxCell>
                <mxCell id="y-arYMla7s28pJlOuvkU-30" value="" style="ellipse;whiteSpace=wrap;html=1;aspect=fixed;fillColor=#d5e8d4;strokeColor=#82b366;" parent="y-arYMla7s28pJlOuvkU-1" vertex="1">
                    <mxGeometry x="445" y="320" width="40" height="40" as="geometry"/>
                </mxCell>
                <mxCell id="y-arYMla7s28pJlOuvkU-31" value="sub" style="edgeStyle=none;rounded=0;html=1;exitX=0.5;exitY=1;exitDx=0;exitDy=0;entryX=0.5;entryY=0;entryDx=0;entryDy=0;endArrow=classic;endFill=1;fillColor=#f8cecc;strokeColor=#b85450;" parent="y-arYMla7s28pJlOuvkU-1" source="y-arYMla7s28pJlOuvkU-33" target="y-arYMla7s28pJlOuvkU-45" edge="1">
                    <mxGeometry relative="1" as="geometry"/>
                </mxCell>
                <mxCell id="y-arYMla7s28pJlOuvkU-32" style="edgeStyle=none;html=1;exitX=0.5;exitY=1;exitDx=0;exitDy=0;entryX=1;entryY=0;entryDx=0;entryDy=0;" parent="y-arYMla7s28pJlOuvkU-1" source="y-arYMla7s28pJlOuvkU-33" target="y-arYMla7s28pJlOuvkU-51" edge="1">
                    <mxGeometry relative="1" as="geometry"/>
                </mxCell>
                <mxCell id="y-arYMla7s28pJlOuvkU-33" value="" style="ellipse;whiteSpace=wrap;html=1;aspect=fixed;fillColor=#ffe6cc;strokeColor=#d79b00;" parent="y-arYMla7s28pJlOuvkU-1" vertex="1">
                    <mxGeometry x="525" y="480" width="40" height="40" as="geometry"/>
                </mxCell>
                <mxCell id="y-arYMla7s28pJlOuvkU-34" style="edgeStyle=none;rounded=0;html=1;exitX=0.5;exitY=1;exitDx=0;exitDy=0;entryX=0.5;entryY=0;entryDx=0;entryDy=0;endArrow=classic;endFill=1;" parent="y-arYMla7s28pJlOuvkU-1" source="y-arYMla7s28pJlOuvkU-35" target="y-arYMla7s28pJlOuvkU-45" edge="1">
                    <mxGeometry relative="1" as="geometry"/>
                </mxCell>
                <mxCell id="y-arYMla7s28pJlOuvkU-35" value="mux" style="ellipse;whiteSpace=wrap;html=1;aspect=fixed;fillColor=#f8cecc;strokeColor=#b85450;" parent="y-arYMla7s28pJlOuvkU-1" vertex="1">
                    <mxGeometry x="445" y="480" width="40" height="40" as="geometry"/>
                </mxCell>
                <mxCell id="y-arYMla7s28pJlOuvkU-36" style="edgeStyle=none;rounded=0;html=1;exitX=0;exitY=1;exitDx=0;exitDy=0;entryX=0.5;entryY=0;entryDx=0;entryDy=0;endArrow=classic;endFill=1;" parent="y-arYMla7s28pJlOuvkU-1" source="y-arYMla7s28pJlOuvkU-39" target="y-arYMla7s28pJlOuvkU-35" edge="1">
                    <mxGeometry relative="1" as="geometry"/>
                </mxCell>
                <mxCell id="y-arYMla7s28pJlOuvkU-37" style="edgeStyle=none;rounded=0;html=1;exitX=1;exitY=1;exitDx=0;exitDy=0;entryX=0.5;entryY=0;entryDx=0;entryDy=0;endArrow=classic;endFill=1;" parent="y-arYMla7s28pJlOuvkU-1" source="y-arYMla7s28pJlOuvkU-39" target="y-arYMla7s28pJlOuvkU-41" edge="1">
                    <mxGeometry relative="1" as="geometry"/>
                </mxCell>
                <mxCell id="y-arYMla7s28pJlOuvkU-38" style="edgeStyle=none;rounded=0;html=1;exitX=0;exitY=1;exitDx=0;exitDy=0;entryX=0.5;entryY=0;entryDx=0;entryDy=0;endArrow=classic;endFill=1;" parent="y-arYMla7s28pJlOuvkU-1" source="y-arYMla7s28pJlOuvkU-39" target="y-arYMla7s28pJlOuvkU-43" edge="1">
                    <mxGeometry relative="1" as="geometry"/>
                </mxCell>
                <mxCell id="y-arYMla7s28pJlOuvkU-39" value="" style="ellipse;whiteSpace=wrap;html=1;aspect=fixed;fillColor=#fff2cc;strokeColor=#d6b656;" parent="y-arYMla7s28pJlOuvkU-1" vertex="1">
                    <mxGeometry x="405" y="400" width="40" height="40" as="geometry"/>
                </mxCell>
                <mxCell id="y-arYMla7s28pJlOuvkU-40" style="edgeStyle=none;rounded=0;html=1;exitX=0.5;exitY=1;exitDx=0;exitDy=0;entryX=0.5;entryY=0;entryDx=0;entryDy=0;endArrow=classic;endFill=1;" parent="y-arYMla7s28pJlOuvkU-1" source="y-arYMla7s28pJlOuvkU-41" target="y-arYMla7s28pJlOuvkU-45" edge="1">
                    <mxGeometry relative="1" as="geometry"/>
                </mxCell>
                <mxCell id="y-arYMla7s28pJlOuvkU-41" value="" style="ellipse;whiteSpace=wrap;html=1;aspect=fixed;fillColor=#ffe6cc;strokeColor=#d79b00;" parent="y-arYMla7s28pJlOuvkU-1" vertex="1">
                    <mxGeometry x="365" y="480" width="40" height="40" as="geometry"/>
                </mxCell>
                <mxCell id="y-arYMla7s28pJlOuvkU-42" style="edgeStyle=none;rounded=0;html=1;exitX=0.5;exitY=1;exitDx=0;exitDy=0;endArrow=classic;endFill=1;" parent="y-arYMla7s28pJlOuvkU-1" source="y-arYMla7s28pJlOuvkU-43" edge="1">
                    <mxGeometry relative="1" as="geometry">
                        <mxPoint x="345" y="560" as="targetPoint"/>
                    </mxGeometry>
                </mxCell>
                <mxCell id="y-arYMla7s28pJlOuvkU-43" value="and" style="ellipse;whiteSpace=wrap;html=1;aspect=fixed;fillColor=#e1d5e7;strokeColor=#9673a6;" parent="y-arYMla7s28pJlOuvkU-1" vertex="1">
                    <mxGeometry x="285" y="480" width="40" height="40" as="geometry"/>
                </mxCell>
                <mxCell id="y-arYMla7s28pJlOuvkU-44" style="edgeStyle=none;html=1;exitX=0.5;exitY=1;exitDx=0;exitDy=0;entryX=0.5;entryY=0;entryDx=0;entryDy=0;" parent="y-arYMla7s28pJlOuvkU-1" source="y-arYMla7s28pJlOuvkU-45" target="y-arYMla7s28pJlOuvkU-51" edge="1">
                    <mxGeometry relative="1" as="geometry"/>
                </mxCell>
                <mxCell id="y-arYMla7s28pJlOuvkU-45" value="" style="ellipse;whiteSpace=wrap;html=1;aspect=fixed;fillColor=#d5e8d4;strokeColor=#82b366;" parent="y-arYMla7s28pJlOuvkU-1" vertex="1">
                    <mxGeometry x="325" y="560" width="40" height="40" as="geometry"/>
                </mxCell>
                <mxCell id="y-arYMla7s28pJlOuvkU-46" value="var" style="rounded=0;whiteSpace=wrap;html=1;fontFamily=Helvetica;fontSize=12;fontColor=rgb(0, 0, 0);align=center;strokeColor=#6c8ebf;fillColor=#dae8fc;" parent="y-arYMla7s28pJlOuvkU-1" vertex="1">
                    <mxGeometry x="645" y="380" width="40" height="40" as="geometry"/>
                </mxCell>
                <mxCell id="y-arYMla7s28pJlOuvkU-47" value="add" style="rounded=0;whiteSpace=wrap;html=1;fontFamily=Helvetica;fontSize=12;align=center;strokeColor=#82b366;fillColor=#d5e8d4;" parent="y-arYMla7s28pJlOuvkU-1" vertex="1">
                    <mxGeometry x="645" y="420" width="40" height="40" as="geometry"/>
                </mxCell>
                <mxCell id="y-arYMla7s28pJlOuvkU-48" value="mult" style="rounded=0;whiteSpace=wrap;html=1;fontFamily=Helvetica;fontSize=12;align=center;strokeColor=#d79b00;fillColor=#ffe6cc;" parent="y-arYMla7s28pJlOuvkU-1" vertex="1">
                    <mxGeometry x="645" y="460" width="40" height="40" as="geometry"/>
                </mxCell>
                <mxCell id="y-arYMla7s28pJlOuvkU-49" value="split" style="rounded=0;whiteSpace=wrap;html=1;fontFamily=Helvetica;fontSize=12;align=center;strokeColor=#d6b656;fillColor=#fff2cc;" parent="y-arYMla7s28pJlOuvkU-1" vertex="1">
                    <mxGeometry x="645" y="500" width="40" height="40" as="geometry"/>
                </mxCell>
                <mxCell id="y-arYMla7s28pJlOuvkU-50" style="edgeStyle=none;html=1;exitX=0.5;exitY=1;exitDx=0;exitDy=0;entryX=0.5;entryY=0;entryDx=0;entryDy=0;" parent="y-arYMla7s28pJlOuvkU-1" source="y-arYMla7s28pJlOuvkU-51" target="y-arYMla7s28pJlOuvkU-52" edge="1">
                    <mxGeometry relative="1" as="geometry"/>
                </mxCell>
                <mxCell id="y-arYMla7s28pJlOuvkU-51" value="" style="ellipse;whiteSpace=wrap;html=1;aspect=fixed;fillColor=#d5e8d4;strokeColor=#82b366;" parent="y-arYMla7s28pJlOuvkU-1" vertex="1">
                    <mxGeometry x="325" y="640" width="40" height="40" as="geometry"/>
                </mxCell>
                <mxCell id="y-arYMla7s28pJlOuvkU-52" value="" style="ellipse;whiteSpace=wrap;html=1;aspect=fixed;fillColor=#dae8fc;strokeColor=#6c8ebf;" parent="y-arYMla7s28pJlOuvkU-1" vertex="1">
                    <mxGeometry x="325" y="720" width="40" height="40" as="geometry"/>
                </mxCell>
                <mxCell id="y-arYMla7s28pJlOuvkU-53" value="mux" style="rounded=0;whiteSpace=wrap;html=1;fontFamily=Helvetica;fontSize=12;align=center;strokeColor=#b85450;fillColor=#f8cecc;" parent="y-arYMla7s28pJlOuvkU-1" vertex="1">
                    <mxGeometry x="645" y="540" width="40" height="40" as="geometry"/>
                </mxCell>
                <mxCell id="y-arYMla7s28pJlOuvkU-54" value="and" style="rounded=0;whiteSpace=wrap;html=1;fontFamily=Helvetica;fontSize=12;align=center;strokeColor=#9673a6;fillColor=#e1d5e7;" parent="y-arYMla7s28pJlOuvkU-1" vertex="1">
                    <mxGeometry x="645" y="580" width="40" height="40" as="geometry"/>
                </mxCell>
                <mxCell id="y-arYMla7s28pJlOuvkU-55" value="" style="endArrow=none;dashed=1;html=1;dashPattern=1 3;strokeWidth=2;" parent="y-arYMla7s28pJlOuvkU-1" edge="1">
                    <mxGeometry width="50" height="50" relative="1" as="geometry">
                        <mxPoint x="125" y="460" as="sourcePoint"/>
                        <mxPoint x="565" y="460" as="targetPoint"/>
                    </mxGeometry>
                </mxCell>
                <mxCell id="y-arYMla7s28pJlOuvkU-56" value="" style="endArrow=none;dashed=1;html=1;dashPattern=1 3;strokeWidth=2;" parent="y-arYMla7s28pJlOuvkU-1" edge="1">
                    <mxGeometry width="50" height="50" relative="1" as="geometry">
                        <mxPoint x="125" y="540" as="sourcePoint"/>
                        <mxPoint x="565" y="540" as="targetPoint"/>
                    </mxGeometry>
                </mxCell>
                <mxCell id="y-arYMla7s28pJlOuvkU-57" value="" style="shape=curlyBracket;whiteSpace=wrap;html=1;rounded=1;" parent="y-arYMla7s28pJlOuvkU-1" vertex="1">
                    <mxGeometry x="90" y="160" width="20" height="300" as="geometry"/>
                </mxCell>
                <mxCell id="y-arYMla7s28pJlOuvkU-58" value="" style="shape=curlyBracket;whiteSpace=wrap;html=1;rounded=1;" parent="y-arYMla7s28pJlOuvkU-1" vertex="1">
                    <mxGeometry x="90" y="460" width="20" height="80" as="geometry"/>
                </mxCell>
                <mxCell id="y-arYMla7s28pJlOuvkU-59" value="" style="shape=curlyBracket;whiteSpace=wrap;html=1;rounded=1;" parent="y-arYMla7s28pJlOuvkU-1" vertex="1">
                    <mxGeometry x="90" y="540" width="20" height="220" as="geometry"/>
                </mxCell>
                <mxCell id="y-arYMla7s28pJlOuvkU-60" value="post-addition&lt;br&gt;add &amp;amp; shift" style="text;html=1;align=center;verticalAlign=middle;resizable=0;points=[];autosize=1;strokeColor=none;fillColor=none;" parent="y-arYMla7s28pJlOuvkU-1" vertex="1">
                    <mxGeometry x="10" y="635" width="80" height="30" as="geometry"/>
                </mxCell>
                <mxCell id="y-arYMla7s28pJlOuvkU-61" value="mult" style="text;html=1;align=center;verticalAlign=middle;resizable=0;points=[];autosize=1;strokeColor=none;fillColor=none;" parent="y-arYMla7s28pJlOuvkU-1" vertex="1">
                    <mxGeometry x="30" y="490" width="40" height="20" as="geometry"/>
                </mxCell>
                <mxCell id="y-arYMla7s28pJlOuvkU-62" value="pre-addition&lt;br&gt;add &amp;amp; split" style="text;html=1;align=center;verticalAlign=middle;resizable=0;points=[];autosize=1;strokeColor=none;fillColor=none;" parent="y-arYMla7s28pJlOuvkU-1" vertex="1">
                    <mxGeometry x="10" y="295" width="80" height="30" as="geometry"/>
                </mxCell>
            </root>
        </mxGraphModel>
    </diagram>
</mxfile>